<svg id="Layer_1" data-name="Layer 1" xmlns="http://www.w3.org/2000/svg" width="9.2in" height="2.5in" viewBox="0 0 659 182.3"><title>animal-rescue</title><path d="M202.4,173c7.7-10,15.6-19.8,23.5-29.5,4-4.8,8.2-9.6,11.6-14.5a168.1,168.1,0,0,0,9.8-15.5,116.8,116.8,0,0,0,7.4-16.6A88.5,88.5,0,0,0,259,79.5c1.6-11.7.6-23.7-3.8-34.5a59.1,59.1,0,0,0-22.4-26.9,65,65,0,0,0-16.3-8,49.1,49.1,0,0,0-17.9-2,55.4,55.4,0,0,0-17.8,4.4,76.1,76.1,0,0,0-15.9,9.1c-2.6,1.8-4.9,3.8-7.3,5.8l-6.7,6.4c-2.1,2.3-4.2,4.5-6.1,6.9a87.2,87.2,0,0,0-5.5,7.3,2.7,2.7,0,0,1-3.7.7,1,1,0,0,1-.6-.5l-.2-.2c-1.8-2.3-3.9-4.6-6-6.8s-4.3-4.4-6.5-6.5a129.2,129.2,0,0,0-14.4-11.2,86.9,86.9,0,0,0-7.7-4.6,83.4,83.4,0,0,0-8-3.8,67.5,67.5,0,0,0-8.4-2.6l-4.3-.9-2.1-.2-1.1-.2h-1A47.8,47.8,0,0,0,58.4,13l-1.1.2-1,.4-2,.7-2,.8-2,.9-4,2c-1.3.6-2.5,1.4-3.8,2.1A58.8,58.8,0,0,0,20,45.5,58.7,58.7,0,0,0,15.4,62a73.2,73.2,0,0,0,.1,17.5,87,87,0,0,0,4.1,17.3,111.5,111.5,0,0,0,7.3,16.6A155.3,155.3,0,0,0,36.5,129c3.5,5,7.6,9.8,11.6,14.6,8,9.7,15.9,19.4,23.6,29.4a.5.5,0,0,1-.1.7c-.2.1-.5.1-.6-.1-9.1-8.7-17.9-17.7-26.7-26.7l-6.6-6.7L36,138.5l-1.5-1.8L31.3,133a159.3,159.3,0,0,1-11.2-15.7,108.7,108.7,0,0,1-8.7-17.4A95.9,95.9,0,0,1,6,80.9C3.8,67.8,4.8,53.8,10.3,41.2A62.9,62.9,0,0,1,21.4,24.1,66.8,66.8,0,0,1,37.2,11.3c1.5-.8,2.9-1.7,4.4-2.4s3-1.5,4.6-2.1l2.3-1,2.3-.9,2.5-.8,1.2-.4,1.2-.3A60.9,60.9,0,0,1,76.1,1.8,67.1,67.1,0,0,1,95.5,7a87.3,87.3,0,0,1,17,10,89.4,89.4,0,0,1,7.6,6.2c2.4,2.1,4.7,4.4,6.9,6.7s4.4,4.8,6.4,7.2a93.7,93.7,0,0,1,5.9,7.8h-4.5a92.7,92.7,0,0,1,6.4-7.3c2.2-2.3,4.5-4.6,6.8-6.8a131.7,131.7,0,0,1,14.9-11.9,85.4,85.4,0,0,1,8.2-5,68.4,68.4,0,0,1,8.6-4.2,88.5,88.5,0,0,1,9.1-3.1l4.7-1,2.4-.4,1.2-.2h1.2a59.7,59.7,0,0,1,19.3,1.3,72.1,72.1,0,0,1,9.3,3l4.4,2a45.1,45.1,0,0,1,4.4,2.2,63.9,63.9,0,0,1,15.6,11.9,57.7,57.7,0,0,1,11.4,16.3,62.7,62.7,0,0,1,5.5,19.3,73.5,73.5,0,0,1-.5,19.9c-2,13.1-7.1,25.4-13.8,36.5A143.4,143.4,0,0,1,242.8,133l-3.1,3.7c-.5.6-1,1.3-1.6,1.9l-1.6,1.7-6.6,6.7c-8.8,9-17.6,17.9-26.7,26.6-.2.2-.6.2-.7,0A.5.5,0,0,1,202.4,173Z" fill="#c81d6b"/><path d="M105.7,96.6c-4.4,6.5-8.6,13.3-12.4,20.3a119.1,119.1,0,0,0-9.5,21.7l-.7,2.8-.6,2.9a20.3,20.3,0,0,0-.2,5.5,6.1,6.1,0,0,0,.1,1.4l.3,1.3.5,1.1a7.5,7.5,0,0,0,.7,1.2l.6,1.3a4.4,4.4,0,0,1,.8,1.1l.9,1,.9,1a16.3,16.3,0,0,0,4.4,3,18.7,18.7,0,0,0,5.2,1.2,19.6,19.6,0,0,0,5.4-.2l2.6-.7a8.3,8.3,0,0,0,2.1-.9h.3l1-.7,1-.5,1-.3a13.7,13.7,0,0,1,3.2-.6c2-.3,3.7-.6,4.7-1.4l.3-.2.4-.4.8-1a15.3,15.3,0,0,0,1.5-2.3,22.6,22.6,0,0,1,2.1-2.8,20.9,20.9,0,0,1,2.9-2.3l1.6-.8h.7l.5-.2a6.7,6.7,0,0,0,1.9-1.4,8.4,8.4,0,0,0,2.6-3.8,13.3,13.3,0,0,0,.9-4.9,11.4,11.4,0,0,0-.2-2.6,14.1,14.1,0,0,0-.5-2.7c-.8-3.7-2.1-7.3-3.3-11.3a62.1,62.1,0,0,1-1.4-6.2c-.1-1.1-.3-2.2-.3-3.2a9.7,9.7,0,0,1-.1-1.7v-1.5a15.1,15.1,0,0,0-3.6-9L122.9,97c-.7-.9-1.3-1.6-2.1-2.8l-.5-.9a9.3,9.3,0,0,1-.5-1l-.3-1-.2-.5-.5-1.2-.5-1.2A34.8,34.8,0,0,0,103.6,73a17.9,17.9,0,0,0-2.4-1.2l-1.2-.5-1.3-.4-2.5-.8-2.7-.6-1.3-.2-1.3-.2-2.7-.2H82.8A12.9,12.9,0,0,0,78.5,70a7.5,7.5,0,0,0-2,1.2,18.5,18.5,0,0,1-3.2,1.7,13.3,13.3,0,0,1-4,1.2l-1.9.3H65.5a26.7,26.7,0,0,1-6.9-.9,96,96,0,0,1-11.8-3.9A39.1,39.1,0,0,0,41.9,68H40.8l.7-.4c.2-.3.1-.3.1-.2a8.8,8.8,0,0,0-.7,2l-.6,2.8a30.2,30.2,0,0,1-.9,3.5l-.4.9a9.3,9.3,0,0,1-.5,1l-1.1,1.8-.6.7-.3.8-.3,1a1.3,1.3,0,0,0-.1.6c-.1.1-.1.2-.1.4s0,.6-.1,1v2.4l.2,1.3a34.4,34.4,0,0,0,3.4,10.1,13.4,13.4,0,0,0,2.8,3.8l4.5,3.9,4.6,3.7c1.6,1.3,3.2,2.5,4.7,3.9a27.2,27.2,0,0,1,2.4,2.4,9.1,9.1,0,0,1,2,3.3,10,10,0,0,1,.5,3.7c0,1.1,0,2.1-.1,3.1a97.7,97.7,0,0,1-1.6,12.1,52.5,52.5,0,0,1-3.8,11.6.5.5,0,0,1-.6.2.5.5,0,0,1-.3-.5h.1a52.5,52.5,0,0,0,1.3-5.7c.3-2,.5-3.9.7-5.9a91.4,91.4,0,0,0,.1-11.7c-.1-2-.1-4-.7-5.1a5.6,5.6,0,0,0-1.2-1.6,19.2,19.2,0,0,0-2.1-1.6l-9.8-6.8-4.9-3.6a20.1,20.1,0,0,1-4.8-5.4,46.2,46.2,0,0,1-5-12.2l-.3-1.6-.3-1.8c0-.5-.1-1.2-.1-1.8a12,12,0,0,1,0-1.9l.2-1.1c0-.4.1-.6.1-.9a18,18,0,0,1,.5-1.9,10.4,10.4,0,0,1,.8-2,10.1,10.1,0,0,1,1.1-1.7c.2-.5.4-.6.5-.9v-.3l.2-.4c.1-.7.3-1.5.5-2.3s.3-2.1.5-3.1a29.3,29.3,0,0,1,1.1-3.8A8.7,8.7,0,0,1,35.2,61a7.9,7.9,0,0,1,3.3-1.9l2.7-.3h2.1a61.2,61.2,0,0,1,6.6,1.8,108.3,108.3,0,0,0,10.9,3.7,20.5,20.5,0,0,0,4.9.6h2.1a5.3,5.3,0,0,0,1.8-.5l2-1.1a31,31,0,0,1,3.2-1.7,20.6,20.6,0,0,1,7.4-1.6,9.6,9.6,0,0,1,1.7,0h1.6l3.3.2,3.2.4,1.6.2,1.6.4,3.2.8,3.2,1.1,1.5.6,1.5.7,2.9,1.5a39.5,39.5,0,0,1,10.2,8.4,42.3,42.3,0,0,1,7.1,11l.7,1.5.5,1.6.3.9v.2h0c0,.1.1.2.2.3a.8.8,0,0,0,.2.4c.7,1.2,2.1,2.9,3.4,4.6a23.1,23.1,0,0,1,3.3,6,18.9,18.9,0,0,1,1.3,7v1.5a5.7,5.7,0,0,0,.1,1.3,24.6,24.6,0,0,0,.2,2.8,38.2,38.2,0,0,0,1.1,5.5c.9,3.7,2.2,7.6,3,11.7s1.1,9-.8,13.4a15.3,15.3,0,0,1-4.2,5.9,15.7,15.7,0,0,1-3,2l-1.5.6-1.1.5a9.7,9.7,0,0,0-3.4,3.3,31.6,31.6,0,0,1-1.8,2.7l-1.2,1.3-.7.6-.9.6a9.8,9.8,0,0,1-3.5,1.5,19.2,19.2,0,0,1-3.2.5l-2.6.4h-.5l-.4.2h-.3l-.3.2-.5.4a13,13,0,0,1-3.3,1.4l-3.2.7a29.1,29.1,0,0,1-6.6.1,24,24,0,0,1-6.3-1.9,16.9,16.9,0,0,1-5.3-3.9l-1.2-1.1-.9-1.4a10.1,10.1,0,0,1-.9-1.3l-.8-1.5-.7-1.4-.5-1.6a10.5,10.5,0,0,1-.4-1.7,8.6,8.6,0,0,1-.1-1.6,27.2,27.2,0,0,1,.5-6.4c.2-1,.5-2,.7-3l.9-2.9A115.2,115.2,0,0,1,91.7,116,239.2,239.2,0,0,1,105,96a.5.5,0,0,1,.6-.1c.2.2.3.4.1.6Z" fill="#c81d6b"/><path d="M205.1,167.4a27.9,27.9,0,0,1-2.8-3.2,27.1,27.1,0,0,1-2.1-3.7,18.6,18.6,0,0,1-2.1-8.3.8.8,0,0,1,.3-.8h.1c2.5-1.7,4.9-3.6,7.3-5.6s4.6-4,6.7-6.2a47.2,47.2,0,0,0,5.7-7c1.6-2.4,2.8-5.2,2.6-7.6l.4,1.1-4.1-4.8a2.2,2.2,0,0,1-.4-1.7h.1a33,33,0,0,0,1-12.4A21.2,21.2,0,0,0,213,96.3a61.7,61.7,0,0,0-4.3-4.6l-.3-.3-.2-.2-.3-.3a5.5,5.5,0,0,1-.8-1.5,7.1,7.1,0,0,1-.5-2.7,15.5,15.5,0,0,1,.9-4.1,33.4,33.4,0,0,1,3.1-6.6,52.5,52.5,0,0,1,3.8-5.8l3.8,4.7A102.6,102.6,0,0,1,204,80.6a64.9,64.9,0,0,1-7.6,1.9,28.5,28.5,0,0,1-4.2.4h-2.4l-1.2-.2-1.1-.2a24.8,24.8,0,0,1-4.1-1.5L179.8,79a73.9,73.9,0,0,1-6.6-4.2c-2.1-1.5-4.1-3.1-6.1-4.7a68.3,68.3,0,0,1-5.8-5.1l7.5-2c-.4,1.9-.8,4.1-1.2,6.1s-.6,4.2-.8,6.2a41.2,41.2,0,0,0-.4,6,16.3,16.3,0,0,0,.6,4.9v.2a4.4,4.4,0,0,1-.8,4.3l-.6.7a5.6,5.6,0,0,0-.5.8L164,93.9a39.7,39.7,0,0,0-2,3.5,52.5,52.5,0,0,0-3.3,7.7,50.8,50.8,0,0,0-2.5,16.5,49.1,49.1,0,0,0,.9,8.5c.1.7.3,1.4.4,2.1s.3,1.4.5,2.1.8,2.8,1.3,4.1a84.8,84.8,0,0,0,7.7,16.1.5.5,0,0,1-.2.6.5.5,0,0,1-.6-.1,64.6,64.6,0,0,1-10.8-14.9,53.2,53.2,0,0,1-5.6-18,39.3,39.3,0,0,1-.3-9.7,53.2,53.2,0,0,1,1.5-9.6,49.2,49.2,0,0,1,3.2-9.1c.7-1.5,1.4-3,2.2-4.4a25.3,25.3,0,0,1,1.3-2.2l.7-1,.9-1.2-.8,4.6a18.7,18.7,0,0,1-1.1-4.2c-.1-1.4-.3-2.6-.3-3.9a55.3,55.3,0,0,1,.4-7.1c.3-2.3.6-4.6,1.1-6.8s.9-4.5,1.5-6.8h0a4.6,4.6,0,0,1,5.5-3.1,3.7,3.7,0,0,1,2,1.2c3.3,3.3,6.9,6.6,10.5,9.6,1.9,1.5,3.7,2.8,5.7,4.1a27.2,27.2,0,0,0,5.7,2.8l.7.2.6.2h1.3l3.2-.2a59.6,59.6,0,0,0,6.8-1.5,93.1,93.1,0,0,0,13.4-4.8h.1a3.2,3.2,0,0,1,4.2,1.6,3.1,3.1,0,0,1-.4,3.2,53.4,53.4,0,0,0-6.5,10.5,16.7,16.7,0,0,0-.6,2.4v.5h.1l.3.3a61.3,61.3,0,0,1,4.5,5.4,25.7,25.7,0,0,1,5.2,13.4,34.5,34.5,0,0,1-1.9,14l-.3-1.8,3.8,5h.1a1.9,1.9,0,0,1,.3,1,11.7,11.7,0,0,1-1.1,5.3,19.9,19.9,0,0,1-2.4,4.3,44.2,44.2,0,0,1-6.5,7.1,82.9,82.9,0,0,1-7.2,6.1c-2.5,1.9-5,3.7-7.7,5.4l.4-.8a18.6,18.6,0,0,0,1.5,7.7,20.5,20.5,0,0,0,1.9,3.6,19.9,19.9,0,0,0,2.4,3.3h0c.2.2.2.5,0,.6S205.2,167.6,205.1,167.4Z" fill="#c81d6b"/><path d="M361.3,145.4h-8.1l-1.5,5.5h-5.5l8.1-27.7h6l8,27.7h-5.5Zm-6.9-4.7h5.8l-2.9-10.8Z" fill="#58b849"/><path d="M375.7,150.9h-5.1V128.8h4.8v2.5a6,6,0,0,1,5.3-2.8c4,0,6.6,2.5,6.6,8.1v14.3h-5.2V137c0-2.7-1.2-3.9-3.2-3.9s-3.2,1.2-3.2,4Z" fill="#58b849"/><path d="M393.9,126.1a3.1,3.1,0,1,1,3.2-3.1A3.1,3.1,0,0,1,393.9,126.1Zm2.6,24.8h-5.2V128.8h5.2Z" fill="#58b849"/><path d="M406.2,150.9H401V128.8h4.9v2.3a4.7,4.7,0,0,1,4.6-2.6,5.6,5.6,0,0,1,5.2,3.1,6.2,6.2,0,0,1,5.5-3.1c3.7,0,5.9,2.4,5.9,7.8v14.6h-5.2V136.1c0-2.2-1.2-3-2.6-3a2.6,2.6,0,0,0-2.7,2.9v14.9h-5.1V136.1c0-2.2-1.1-3-2.7-3s-2.6.8-2.6,2.9Z" fill="#58b849"/><path d="M430.5,143v-6.4c0-5.7,2.7-8.1,6.6-8.1a5.6,5.6,0,0,1,5.2,2.8v-2.5h4.9v22.1h-4.9v-2.5a5.6,5.6,0,0,1-5.2,2.8C433.1,151.2,430.5,148.7,430.5,143Zm11.5-.3V137c0-2.7-1.3-3.9-3.1-3.9s-3.2,1.2-3.2,3.9v5.7c0,2.7,1.3,3.9,3.2,3.9S442,145.4,442,142.7Z" fill="#58b849"/><path d="M456.9,150.9h-5.2V121.2h5.2Z" fill="#58b849"/><path d="M470.6,150.9V123.2h8.8c5.6,0,9.3,3.5,9.3,10v.8c0,4.3-1.8,7.1-4.8,8.5l4.7,8.4h-6l-3.7-7.2h-2.8v7.2Zm5.5-22.6v10.3h2.7c2.3,0,4.5-1.1,4.5-4.7v-.8c0-3.8-2.1-4.8-4.5-4.8Z" fill="#58b849"/><path d="M508.8,143.8v.2c0,4-3.1,7.3-8.4,7.3s-8.4-3.4-8.4-8.7v-5.4c0-5.4,3.1-8.7,8.4-8.7s8.4,3.1,8.4,8.5v4.4H497.2v2.4a3.3,3.3,0,0,0,3.2,3.3c1.8,0,3.2-1,3.2-2.8v-.5Zm-11.6-6.1h6.4v-1c0-3-1.2-4-3.2-4a3.1,3.1,0,0,0-3.2,3.4Z" fill="#58b849"/><path d="M528,136.1h-5c0-2.5-1.4-3.2-3.3-3.2s-2.8.8-2.8,2.1c0,4.2,11.4,2,11.4,9.6,0,4.3-3,6.7-8.4,6.7s-8.6-2.9-8.6-7.8h5.2a3.1,3.1,0,0,0,3.4,3.4c2,0,3.1-1.1,3.1-2.3,0-3.9-11.2-1.8-11.2-9.6,0-4,2.9-6.5,7.8-6.5S528,131,528,136.1Z" fill="#58b849"/><path d="M547.9,142.3c0,5.6-2.9,9-8.4,9s-8.4-3.4-8.4-8.7v-5.3c0-5.4,3.1-8.8,8.4-8.8s8.4,3.3,8.4,9.1h-5.2c0-3.1-1.2-4.4-3.2-4.4s-3.2,1-3.2,3.8v5.2c0,2.9,1.1,4.4,3.2,4.4s3.2-1.3,3.2-4.3Z" fill="#58b849"/><path d="M562.5,128.8h5.3v13.9c0,5.3-3.3,8.6-8.4,8.6s-8.4-3.3-8.4-8.6V128.8h5.2v14.7a3,3,0,0,0,3.2,3.2,3.1,3.1,0,0,0,3.1-3.2Z" fill="#58b849"/><path d="M587.8,143.8v.2c0,4-3.1,7.3-8.4,7.3s-8.4-3.4-8.4-8.7v-5.4c0-5.4,3.1-8.7,8.4-8.7s8.4,3.1,8.4,8.5v4.4H576.2v2.4a3.3,3.3,0,0,0,3.2,3.3c1.8,0,3.2-1,3.2-2.8v-.5Zm-11.6-6.1h6.4v-1c0-3-1.2-4-3.2-4a3.1,3.1,0,0,0-3.2,3.4Z" fill="#58b849"/><path d="M311.5,51.6c-5.9,1.1-16.7,13.5-14.4,17.4.8,1.5-1,1.6-2.4.2-6.5-6.2,2.5-17.9,9.8-20.2,5.6-1.8,15.9,1.8,16.4,8.5.2,3.3-1,9-6.1,20.2l-.2.2a76.1,76.1,0,0,1,13.5-1.4l1-1.9c5.3-10.7,11.7-20.8,14.2-23.3s8.2-1,8.4,1c-2,1.9-7.5,8.9-15.3,24.9a10.5,10.5,0,0,1,3.7,1.4c1.1.7.5,2.2-1.3,2.3a13.8,13.8,0,0,0-3.6-1c-1.9,4.3-7.9,19.8-6.2,23.6a1.8,1.8,0,0,0,1.9.9c.9.4.4,1.8-1.4,1.8-4.1.1-8.6-4-8.6-8.4s2.2-10.4,5.7-18.1a70.1,70.1,0,0,0-13.8,2.4h-.4c-4.5,8.3-13.6,23-19.2,23.5s-12.8-7.3-9.6-12.7c2-3.5,9.8-9.2,21.6-12.8l1.6-3.3c5.8-11.7,8.7-21.2,7.8-24.2A2.7,2.7,0,0,0,311.5,51.6Zm-9.9,34.5a37,37,0,0,0-12.1,8.7c-2.1,2.3-3.4,6.9-.8,6.5S296.7,93.8,301.6,86.1Z" fill="#f8c4da"/><path d="M362.9,72.2c2.7.1,5.8,1.6,5.6,6-.1,2.5-2.1,8.2-5.4,13.2,6-.6,12.6-11.2,13.4-12.3s2.6-.7,1.8,1-4.4,9.1-10.4,12.6a10.6,10.6,0,0,1-6.8,1.6,20.2,20.2,0,0,1-7.3,6c-5.1,2-13.1-3.2-13.7-9-.8-8.8,7-22.4,15-23.4,2.8-.3,6.9,1.9,7.7,3.7A1.8,1.8,0,0,1,362.9,72.2ZM351.4,79c-3,4.6-5.3,10.8-5,15.9s2.9,2.6,4.6,1.3a28.7,28.7,0,0,0,4.6-4.2,10.1,10.1,0,0,1-1.3-1.6,10.7,10.7,0,0,1-1.1-8.9c.9-3.4,4.2-9.1,8.7-9.3C357.2,71.4,354.1,74.8,351.4,79Zm6.1,10.6c3.2-4.2,5.9-9.2,6.3-13.5.2-2.5-2.6-1.9-4.9,1.3S355.2,86.7,357.5,89.6Z" fill="#f8c4da"/><path d="M382.4,80.3c1.5-2.2,5.9-9.9,11.3-11.4,3.7-1.1,7.4,2.9,7.8,5.7.7,4.9-4.8,16.7-10.8,22.1,6.8-2.3,13.1-10.2,17.7-16.6,1.1-2.1,3-.3,2.3,1.1-1.9,3.6-9.2,13.4-15.5,16.6s-14,2.1-19.6-.5c-4.5,9.5-6.6,15.9-8.1,22.6-2.5,1.5-6.9-.7-6.3-4.2s4.2-11.1,7.9-21.8,12.8-26.4,12.8-28.7c1.5-1.3,7.4.7,6.6,2.6S384.4,76.2,382.4,80.3Zm-5.6,14.9a8.1,8.1,0,0,0,4.6.5c5.5-1.2,16.9-23.7,13.7-24S381.5,87,376.8,95.2Z" fill="#f8c4da"/><path d="M411.9,88.4a12.1,12.1,0,0,0-.7,3.5c-.1,2.2.4,4.6,3,4.9,7,.6,16.7-12.9,20.1-17.3.9-.9,3.1-.9,2.4.8-2.5,5.1-9.6,15.4-16.4,18.8s-13.3-.6-15.3-6c-3.1-8.1,6.1-21.7,12.8-24.6s13.1,3.2,12.1,7.5S418.3,85.8,411.9,88.4Zm1.7-4c4.3-2.7,8.8-6.6,10.8-9.3s.5-4-2.4-1.5A45,45,0,0,0,413.6,84.4Z" fill="#f8c4da"/><path d="M441.1,81.7c1.3.8,2.2,2.4,2.5,4.8a27.1,27.1,0,0,1,0,7c5.6-4,10.6-10.6,13.2-14,1.3-.9,2.1.4,1.6,1.6-1.8,3.2-9.2,13.5-15.8,16.6a46.4,46.4,0,0,1-2.2,6.1c-3.3,7.9-7.6,14.2-12.1,15-2.3.5-8.5-2-7.9-7.4s5.8-15.1,9.8-23.2a12.2,12.2,0,0,1,2.5-5.1C437,74.4,445.1,59,445,56.7s6.4-.9,6.6,2.6S445.3,73.3,441.1,81.7Zm-7.7,15.7c-4.2,8.8-8.9,19.3-6.2,18.8s7.4-9.1,10.4-17.5A9.4,9.4,0,0,1,433.4,97.4Zm5.2-1.7c1.1-4.1,1.8-9,1.1-11.3l-1.5,3.1-3.4,7.2A5.7,5.7,0,0,0,438.6,95.7Z" fill="#f8c4da"/><path d="M456.6,96.1c2.5.4,20.9-22.8,21.3-24s7.3.5,5.8,3.4-10.7,20-8,20.9,13.1-12.5,15.7-16.5c1.3-1.5,2.3-.3,1.9,1.3s-10.7,17-15.2,18-8.6-2.4-9.2-5,.5-6,1-7.4c-.8,1.2-6,9.2-11.5,12.2-3.3,1.8-9.4-1.5-8.8-6,1.2-7.8,11.6-21.1,11.7-23.3s6.9,1,6.3,3.2S453.7,95.7,456.6,96.1Z" fill="#f8c4da"/><path d="M499.6,75.8c-5.5,10.8-10.2,22.4-6.1,22s7.9-6.6,10.9-10.9a1.2,1.2,0,0,1,1.6,1.3c-.3,1.8-3.5,10.7-8.3,12.7s-11.5-2.3-12.1-6.6,1.5-10.4,8.4-23.6c4.7-8.7,8.1-14.9,9.6-18s6.5.4,6,2.9S508.6,57.9,499.6,75.8Z" fill="#f8c4da"/><path d="M547.6,73.9c-5.9,11.4-13.9,28.7-14.6,32.5-3.3.3-7-1.9-6.6-4.2s10.6-24,13.4-29.3,6.8-12.6,9.6-16.9h-.6c-18.5.2-23.9,4.7-26.5,7.8s-3.6,7.7-.8,8.6c1.1.9.8,1.9-.8,1.6-3.7-.1-9.8-7-3.3-14.3s22.6-7.4,32.7-7.2,19.3.8,23-.9,1.7,1.7,1,2.2-8.1,2-18.3,2.2a2.2,2.2,0,0,1,1.1,1.7C554.8,60.5,552.4,64.1,547.6,73.9Z" fill="#f8c4da"/><path d="M577.8,78.4c1.7,1.2,3,3,2.4,3.8a27.1,27.1,0,0,0-3.6,6.6c-2.1,4.7-2.9,7.6-1.4,7.4s13.5-13,15.4-16.1c1-1.5,3-.9,2,.9-1.8,3.5-9.2,14.2-13.7,17.3s-7.8.4-10-1.8-.7-5.8.7-8.7c-2.2,3.3-6.9,9.9-11,12-2.1,1.1-8.3-2.7-8.7-5.5s2.6-11.6,8.1-17.8,10.4-8.4,14-9.1,12.6,4.9,11.5,7.6S579.6,78.1,577.8,78.4Zm-1.1-.8c.3-1.7,2.4-5.4,1.1-6.5s-8.7,2.9-13.6,9.5c-7.3,9.6-8.4,15.1-7.4,15.4S571,82.8,574,77.4C574.4,76.7,575.5,76.9,576.7,77.6Z" fill="#f8c4da"/><path d="M600.6,74.6c-.3,1.8-1.9,3.3-4.5,8.3-4.4,8.5-5.3,13.7-2.9,13.3s13-12.3,15.5-16.3c1.4-1.9,3-.5,2.4.9-2.7,5.1-9.5,14.7-14.5,17.7s-8.2-.1-10-2.2-1.9-6.2,1.6-13.5,5.8-9.5,6.1-11.6S600.9,72,600.6,74.6Zm1-9c-2.4-.5-2.7-3.3-.3-5s5.4-1.7,7.3-.2-.5,4-2.2,4.6A8.3,8.3,0,0,1,601.6,65.6Z" fill="#f8c4da"/><path d="M617.1,75.8c-5.4,10.8-9.4,22.9-5.5,21.1S624,83.8,626.8,79.5c1.2-1.8,2.9-.3,2,1.2-2.3,4.4-11,17.5-15.8,19.5s-9.2-1.6-9.9-5.9,1.5-10.4,8.5-23.6c4.7-8.7,8.1-14.9,9.5-18s6.6.4,6.1,2.9S623,64.2,617.1,75.8Z" fill="#f8c4da"/><path d="M617.5,90.9c2.5-2.8,8-9.7,11.6-14.3a11.8,11.8,0,0,1,2.3-5.7c2-2.8,4.8-5.2,7.7-5.2s4.9,4.8,3.7,5.5-6.7,2.8-6.6,8.2a11.9,11.9,0,0,0,1.8,5.7c5.5-.8,11.8-1,13.6-.4a.9.9,0,0,1,.4,1.6c-.7-.2-6.5.4-12.8,1.6,1,2.3,1.5,4.5,0,6.7-2.7,4-6.4,4.9-11.3,5.2-7.9.5-13.1-4-12.5-6.8C615.6,92.1,616.9,91.2,617.5,90.9Zm2,3.9c2.7,2.3,8.6,2.9,11.6-.2a4.9,4.9,0,0,0,1.2-5.2C626.6,90.8,621.1,92.9,619.5,94.8Zm11.7-8.3a25.8,25.8,0,0,1-2-5.5c-1.8,2.6-4,5.2-5.9,7.7Z" fill="#f8c4da"/></svg>