<svg id="Layer_1" data-name="Layer 1" xmlns="http://www.w3.org/2000/svg" width="8.2in" height="2.2in" viewBox="0 0 587.5 161.2"><title>animal-rescue</title><path d="M178.4,152.1q10.2-13,20.7-25.8c3.5-4.3,7.1-8.5,10.2-12.8s6-9,8.6-13.6a99.4,99.4,0,0,0,6.4-14.6,82.8,82.8,0,0,0,3.9-15.2c1.4-10.3.5-20.9-3.4-30.4a52.3,52.3,0,0,0-19.6-23.6,54.9,54.9,0,0,0-14.4-7,41.6,41.6,0,0,0-15.7-1.8,49.7,49.7,0,0,0-15.6,3.9,70.2,70.2,0,0,0-14.1,8,77.9,77.9,0,0,0-6.3,5.1l-5.9,5.6c-1.9,2-3.7,4-5.4,6.1a59.3,59.3,0,0,0-4.8,6.4,2.5,2.5,0,0,1-3.3.6,1.2,1.2,0,0,1-.5-.5h-.1c-1.6-2-3.5-4.1-5.3-6s-3.8-3.9-5.8-5.7a109.8,109.8,0,0,0-12.6-9.9,76.1,76.1,0,0,0-13.8-7.3,48.7,48.7,0,0,0-7.4-2.3l-3.7-.8-1.9-.2H66.7a41.1,41.1,0,0,0-14.8,1.6,47.1,47.1,0,0,0-7.1,2.7L41.3,16,38,17.9A51.1,51.1,0,0,0,18.2,40.1c-4.2,9.2-5.3,19.7-4,29.9a74.2,74.2,0,0,0,3.7,15.3,102.6,102.6,0,0,0,6.3,14.5c2.6,4.7,5.4,9.3,8.5,13.8s6.7,8.5,10.2,12.8c7,8.5,13.9,17,20.7,25.7a.6.6,0,0,1-.1.7.5.5,0,0,1-.6-.1q-11.9-11.5-23.4-23.4l-5.8-5.9a41.2,41.2,0,0,1-2.8-3.1L28.1,117a114.3,114.3,0,0,1-9.8-13.8A94.3,94.3,0,0,1,10.6,88,81.4,81.4,0,0,1,5.9,71.3c-2-11.5-1.1-23.9,3.8-34.9a57.3,57.3,0,0,1,9.7-15.1A60,60,0,0,1,33.3,10.1c1.3-.7,2.5-1.5,3.8-2.1l4-1.9,4.2-1.6,2.1-.7a14.1,14.1,0,0,1,2.2-.6A51,51,0,0,1,67.4,1.8,54.8,54.8,0,0,1,84.5,6.4a74.3,74.3,0,0,1,15,8.7c2.3,1.7,4.5,3.6,6.6,5.4s4.1,3.9,6.1,6,3.8,4.1,5.6,6.3,3.5,4.4,5.2,6.8h-3.9a112.2,112.2,0,0,1,11.5-12.3,118.1,118.1,0,0,1,13.1-10.5,79,79,0,0,1,14.8-8.1,75.2,75.2,0,0,1,8-2.7l4.1-.9,2.1-.3,1.1-.2h1a48.7,48.7,0,0,1,17,1.2,65.6,65.6,0,0,1,15.9,6.2,58.1,58.1,0,0,1,13.7,10.5,53.4,53.4,0,0,1,14.8,31.3,64,64,0,0,1-.4,17.5,89.9,89.9,0,0,1-12.1,32,123.2,123.2,0,0,1-9.7,13.9l-2.8,3.2a41.2,41.2,0,0,1-2.8,3.1l-5.8,5.9c-7.7,8-15.5,15.8-23.5,23.4-.2.2-.5.2-.6,0S178.3,152.3,178.4,152.1Z" fill="#c81d6b"/><path d="M93.5,85c-3.9,5.8-7.6,11.8-10.9,17.9s-6.4,12.5-8.3,19.1a43.7,43.7,0,0,0-1.2,4.9,20.5,20.5,0,0,0-.2,4.9,8.5,8.5,0,0,0,.4,2.3l.4,1.1.6,1,.6,1.1.7,1,.7.9.8.8a13,13,0,0,0,3.9,2.7,18.5,18.5,0,0,0,4.5,1.1,19.3,19.3,0,0,0,4.8-.2l2.3-.6a8.4,8.4,0,0,0,1.9-.9h.2l.9-.6.9-.5.8-.2,2.9-.6a9.1,9.1,0,0,0,4-1.1l.4-.3.3-.3.7-.8,1.3-2.1a18,18,0,0,1,1.9-2.4,9.6,9.6,0,0,1,2.5-2c.9-.6,2-1,2.5-1.3a6.2,6.2,0,0,0,1.7-1.1,8.9,8.9,0,0,0,2.3-3.4,12.1,12.1,0,0,0,.7-4.3,18.8,18.8,0,0,0-.6-4.6c-.7-3.3-1.9-6.5-2.9-10a47.1,47.1,0,0,1-1.2-5.4,14.3,14.3,0,0,1-.3-2.9,6.1,6.1,0,0,1-.1-1.4v-.7a1.5,1.5,0,0,1-.1-.6,13.2,13.2,0,0,0-3.1-8,46.3,46.3,0,0,1-3.4-4.3,5.6,5.6,0,0,1-.5-.8l-.4-.9-.3-.9-.2-.5-.4-1-.5-1.1A30.9,30.9,0,0,0,91.7,64.3l-2.2-1-1-.5-1.2-.3a8.1,8.1,0,0,0-2.2-.7l-2.3-.5-2.4-.4-2.3-.2H73.3a9.7,9.7,0,0,0-3.7.8l-1.8,1.1A17.4,17.4,0,0,1,65,64.3a14,14,0,0,1-3.5,1l-1.7.2H58.2a29.9,29.9,0,0,1-6.1-.8,79,79,0,0,1-10.4-3.5l-4.3-1.4h-.8c-.1.1-.3,0-.2,0a1.1,1.1,0,0,0,.6-.3c.2-.3.2-.3.1-.2a8.4,8.4,0,0,0-.5,1.8q-.3,1-.6,2.4a20.3,20.3,0,0,1-.8,3.1l-.3.8-.5.9a6.5,6.5,0,0,1-1,1.5l-.4.7-.3.6-.3,1a4.3,4.3,0,0,0-.1.5c0,.1-.1.2-.1.3v3l.2,1.2a31.2,31.2,0,0,0,3,8.9,14.8,14.8,0,0,0,2.4,3.3l4,3.4L46,96l4.1,3.4,2.1,2.1a8.4,8.4,0,0,1,1.8,2.9,13.3,13.3,0,0,1,.4,3.2,25.3,25.3,0,0,1-.1,2.8A93.1,93.1,0,0,1,52.9,121a45.3,45.3,0,0,1-3.4,10.2.4.4,0,1,1-.7-.3h0a31,31,0,0,0,1.1-5.1c.3-1.7.5-3.4.7-5.1a90.2,90.2,0,0,0,.1-10.4,16.6,16.6,0,0,0-.6-4.4,4.5,4.5,0,0,0-1.1-1.4L47.2,103l-8.6-5.9L34.2,94a17.8,17.8,0,0,1-4.1-4.8,35.6,35.6,0,0,1-4.4-10.7L25.4,77l-.3-1.5c0-.5-.1-1-.1-1.6V72.2l.2-1c0-.3.1-.5.1-.8a12.4,12.4,0,0,1,.4-1.6l.7-1.8a6.5,6.5,0,0,1,1-1.5l.4-.7.3-.7c.1-.5.3-1.3.4-2a25.6,25.6,0,0,1,.5-2.7,13.4,13.4,0,0,1,1-3.3,6.9,6.9,0,0,1,1.5-2.3,6.5,6.5,0,0,1,2.9-1.6,6.9,6.9,0,0,1,2.4-.3h1.9a50.4,50.4,0,0,1,5.7,1.6A98,98,0,0,0,54,56.8c2.8.7,6,.9,7.7.1a8.5,8.5,0,0,0,1.8-1,18.4,18.4,0,0,1,2.8-1.5A17.7,17.7,0,0,1,72.8,53a3.8,3.8,0,0,1,1.5,0h4.3l2.8.4,2.9.5,2.8.7,2.7,1,1.4.5,1.3.7a21,21,0,0,1,2.6,1.3,37.2,37.2,0,0,1,15.1,17l.6,1.3.5,1.4.3.8v.2h.1a.5.5,0,0,0,.1.3l.2.3c.6,1.1,1.9,2.5,3,4a24.7,24.7,0,0,1,2.9,5.3,16.6,16.6,0,0,1,1.1,6.2v1.3a4.8,4.8,0,0,0,0,1.2,19.4,19.4,0,0,0,.2,2.4,40.5,40.5,0,0,0,.9,4.8c.9,3.3,2,6.7,2.7,10.3a19.2,19.2,0,0,1-.7,11.8,13.1,13.1,0,0,1-3.7,5.1,12.7,12.7,0,0,1-2.7,1.8,16.4,16.4,0,0,0-2.2,1,7.6,7.6,0,0,0-3,2.9l-1.6,2.3-1,1.2c-.2.1-.4.4-.7.5a2,2,0,0,1-.7.6,10.3,10.3,0,0,1-3.1,1.3l-2.8.4-2.4.3-.4.2h-.6l-.2.2-.5.3a8.9,8.9,0,0,1-2.9,1.2l-2.8.7a21.8,21.8,0,0,1-5.7,0,18,18,0,0,1-5.6-1.6,17.7,17.7,0,0,1-4.7-3.4l-1-1.1-.8-1.1-.8-1.2-.7-1.3-.6-1.2-.5-1.5-.3-1.4a7.6,7.6,0,0,1-.1-1.5,25,25,0,0,1,.4-5.5c.4-1.8.9-3.5,1.4-5.3a120,120,0,0,1,9.2-19.1A206.1,206.1,0,0,1,92.9,84.6c.1-.2.3-.3.5-.1s.2.3.1.5Z" fill="#c81d6b"/><path d="M180.8,147.3a21.7,21.7,0,0,1-2.4-2.9,20.7,20.7,0,0,1-1.9-3.2,14.8,14.8,0,0,1-1.3-3.5,15.9,15.9,0,0,1-.6-3.8.6.6,0,0,1,.3-.6h.1c2.2-1.5,4.3-3.2,6.4-4.9a61.9,61.9,0,0,0,5.9-5.5,36.1,36.1,0,0,0,5-6.1c1.4-2.1,2.5-4.5,2.3-6.7l.4.9-3.6-4.2a1.5,1.5,0,0,1-.4-1.4h0a27.3,27.3,0,0,0,1-10.9,19.2,19.2,0,0,0-4.3-9.5,46.1,46.1,0,0,0-3.7-4l-.3-.3-.2-.2-.2-.2-.8-1.3a8.1,8.1,0,0,1-.4-2.5,12.7,12.7,0,0,1,.8-3.6,33.3,33.3,0,0,1,2.7-5.7,56.9,56.9,0,0,1,3.3-5.2l3.4,4.2a90.5,90.5,0,0,1-12.5,5,43.7,43.7,0,0,1-6.7,1.7l-3.6.4h-2.2l-2-.4a25.7,25.7,0,0,1-6.7-3,47.9,47.9,0,0,1-5.8-3.7c-1.9-1.3-3.6-2.7-5.4-4.1s-3.4-2.9-5.1-4.5l6.6-1.8c-.4,1.7-.7,3.6-1,5.4s-.6,3.7-.8,5.5a45.3,45.3,0,0,0-.3,5.2,15.8,15.8,0,0,0,.5,4.3v.2a4,4,0,0,1-.7,3.8l-.5.6-.5.7-1,1.5-1.8,3.1a39.5,39.5,0,0,0-2.8,6.7,40,40,0,0,0-2.2,14.5,38.1,38.1,0,0,0,.7,7.5c.1.6.3,1.2.4,1.8a12.9,12.9,0,0,1,.4,1.9c.4,1.2.7,2.4,1.2,3.6a69.9,69.9,0,0,0,6.7,14.1c.1.2,0,.4-.2.6h-.4a53.5,53.5,0,0,1-9.5-13.1,46.2,46.2,0,0,1-5-15.9,39.2,39.2,0,0,1-.3-8.4,48.5,48.5,0,0,1,1.3-8.5,48,48,0,0,1,2.9-8,34.9,34.9,0,0,1,1.9-3.9l1.2-1.8.6-1,.7-1-.6,4a18.6,18.6,0,0,1-1-3.7l-.3-3.4c0-2.1.2-4.2.4-6.2a54,54,0,0,1,.9-6c.4-2,.8-3.9,1.4-5.9h0a3.9,3.9,0,0,1,4.8-2.8,5.2,5.2,0,0,1,1.8,1,92.6,92.6,0,0,0,9.2,8.5,57.4,57.4,0,0,0,5,3.6,23.4,23.4,0,0,0,5,2.5l1.2.3h1.1l2.8-.2a44.9,44.9,0,0,0,5.9-1.3A98.8,98.8,0,0,0,190,61h0a2.7,2.7,0,0,1,3.7,1.4,2.8,2.8,0,0,1-.3,2.8,45.6,45.6,0,0,0-5.7,9.3,10.8,10.8,0,0,0-.6,2V77h.1l.2.3a45.1,45.1,0,0,1,4,4.7A23.3,23.3,0,0,1,196,93.9a29.4,29.4,0,0,1-1.7,12.2l-.3-1.6,3.4,4.4h.1a1.6,1.6,0,0,1,.3.9,11.9,11.9,0,0,1-1,4.6,17.9,17.9,0,0,1-2.2,3.8,41.3,41.3,0,0,1-5.6,6.2c-2,1.9-4.2,3.7-6.3,5.4l-6.8,4.7.3-.7a22.1,22.1,0,0,0,.4,3.5,13.9,13.9,0,0,0,1,3.3,19.1,19.1,0,0,0,1.6,3.2,14.6,14.6,0,0,0,2.1,2.8h0c.2.2.2.5,0,.6Z" fill="#c81d6b"/><path d="M318,127.9h-7l-1.4,4.8h-4.8l7.1-24.3h5.2l7.1,24.3h-4.9Zm-6-4.1h5l-2.4-9.5Z" fill="#58b849"/><path d="M330.7,132.7h-4.5V113.3h4.2v2.2a5.3,5.3,0,0,1,4.7-2.4c3.5,0,5.8,2.2,5.8,7.1v12.5h-4.6V120.6c0-2.4-1-3.4-2.8-3.4s-2.8,1-2.8,3.5Z" fill="#58b849"/><path d="M346.7,111a2.8,2.8,0,1,1,0-5.5,2.8,2.8,0,1,1,0,5.5Zm2.2,21.7h-4.5V113.3h4.5Z" fill="#58b849"/><path d="M357.5,132.7H353V113.3h4.2v2a4.3,4.3,0,0,1,4-2.2,4.9,4.9,0,0,1,4.6,2.7,5.3,5.3,0,0,1,4.9-2.7c3.2,0,5.1,2.1,5.1,6.8v12.8h-4.5V119.8c0-2-1-2.7-2.3-2.7a2.3,2.3,0,0,0-2.3,2.6v13h-4.6V119.8c0-1.9-1-2.7-2.3-2.7s-2.3.7-2.3,2.6Z" fill="#58b849"/><path d="M378.8,125.9v-5.7c0-5,2.4-7.1,5.8-7.1a5,5,0,0,1,4.6,2.4v-2.2h4.3v19.4h-4.3v-2.1c-.2.7-1.7,2.5-4.6,2.5S378.8,130.8,378.8,125.9Zm10.2-.4v-5c0-2.3-1.2-3.4-2.8-3.4s-2.8,1.1-2.8,3.5v4.9c0,2.4,1.1,3.5,2.8,3.5S389,127.9,389,125.5Z" fill="#58b849"/><path d="M402.1,132.7h-4.6v-26h4.6Z" fill="#58b849"/><path d="M414.1,132.7V108.4h7.7c4.9,0,8.2,3.1,8.2,8.8v.7c0,3.8-1.6,6.3-4.3,7.5l4.2,7.3h-5.3l-3.2-6.2h-2.5v6.2Zm4.8-19.7v8.9h2.4c2,0,4-.9,4-4.1v-.7c0-3.3-1.9-4.1-4-4.1Z" fill="#58b849"/><path d="M447.6,126.5v.2c0,3.5-2.7,6.4-7.3,6.4s-7.4-2.9-7.4-7.6v-4.7c0-4.8,2.7-7.7,7.4-7.7s7.3,2.7,7.3,7.5v3.8H437.4v2.1a2.9,2.9,0,0,0,2.9,2.9,2.5,2.5,0,0,0,2.7-2.5v-.4Zm-10.2-5.3H443v-.9c0-2.6-1-3.5-2.7-3.5a2.7,2.7,0,0,0-2.9,3Z" fill="#58b849"/><path d="M464.5,119.7h-4.4c0-2.2-1.2-2.7-2.9-2.7s-2.5.7-2.5,1.8c0,3.7,10,1.7,10,8.5,0,3.7-2.6,5.8-7.3,5.8s-7.6-2.5-7.6-6.8h4.6a2.7,2.7,0,0,0,3,3c1.7,0,2.7-1,2.7-2.1,0-3.4-9.8-1.5-9.8-8.4,0-3.5,2.5-5.7,6.9-5.7S464.5,115.3,464.5,119.7Z" fill="#58b849"/><path d="M482,125.2c0,4.9-2.6,7.9-7.4,7.9s-7.4-2.9-7.4-7.6v-4.7c0-4.7,2.7-7.7,7.4-7.7s7.4,2.9,7.4,8h-4.6c0-2.8-1-3.9-2.8-3.9s-2.8.9-2.8,3.4v4.5c0,2.6.9,3.9,2.8,3.9s2.8-1.2,2.8-3.8Z" fill="#58b849"/><path d="M494.8,113.3h4.6v12.3c0,4.6-2.8,7.5-7.3,7.5s-7.4-2.9-7.4-7.5V113.3h4.5v13a2.7,2.7,0,0,0,2.9,2.7,2.6,2.6,0,0,0,2.7-2.7Z" fill="#58b849"/><path d="M517,126.5v.2c0,3.5-2.7,6.4-7.3,6.4s-7.4-2.9-7.4-7.6v-4.7c0-4.8,2.7-7.7,7.4-7.7s7.3,2.7,7.3,7.5v3.8H506.9v2.1a2.8,2.8,0,0,0,2.8,2.9,2.5,2.5,0,0,0,2.7-2.5v-.4Zm-10.1-5.3h5.5v-.9c0-2.6-1-3.5-2.7-3.5s-2.8.9-2.8,3Z" fill="#58b849"/><path d="M274.2,45.5c-5.1,1-14.6,11.9-12.6,15.3.8,1.3-.8,1.4-2.1.2-5.7-5.5,2.2-15.7,8.7-17.8,4.9-1.6,13.9,1.6,14.3,7.5.2,2.9-.9,7.9-5.4,17.7v.2a64.3,64.3,0,0,1,11.9-1.2l.8-1.7c4.7-9.4,10.3-18.3,12.5-20.4s7.2-.9,7.4.9C307.8,47.8,303,54,296.2,68a9.3,9.3,0,0,1,3.2,1.2c1,.7.5,2-1.1,2l-3.2-.8c-1.7,3.7-7,17.4-5.5,20.7a1.7,1.7,0,0,0,1.7.8c.8.3.3,1.6-1.2,1.6-3.6.1-7.6-3.5-7.6-7.4s2-9.1,5.1-15.9a58.8,58.8,0,0,0-12.2,2.2h-.3c-4,7.3-12,20.2-16.9,20.7s-11.2-6.5-8.4-11.2c1.7-3.1,8.6-8.1,18.9-11.3l1.5-2.8c5-10.3,7.6-18.7,6.8-21.3C276.9,46.1,276,45.1,274.2,45.5Zm-8.6,30.3A32.5,32.5,0,0,0,255,83.5c-1.9,2-3,6-.7,5.7S261.3,82.6,265.6,75.8Z" fill="#f8c4da"/><path d="M319.4,63.6c2.4.1,5.1,1.4,5,5.3-.1,2.2-1.9,7.2-4.8,11.6,5.3-.6,11.1-9.8,11.8-10.8s2.3-.6,1.6.9-3.9,8-9.2,11.1a9.9,9.9,0,0,1-6,1.4,17.9,17.9,0,0,1-6.3,5.2c-4.5,1.8-11.6-2.8-12-7.9-.8-7.8,6-19.7,13.1-20.5,2.5-.3,6.1,1.6,6.7,3.2S319.5,63.5,319.4,63.6Zm-10.1,6c-2.6,4.1-4.6,9.5-4.4,13.9s2.6,2.3,4.1,1.2a26.5,26.5,0,0,0,4-3.7,5.3,5.3,0,0,1-1.1-1.4,9.3,9.3,0,0,1-1-7.8c.8-3,3.7-8,7.7-8.2C314.4,62.9,311.7,65.9,309.3,69.6Zm5.4,9.3c2.8-3.6,5.2-8.1,5.5-11.9.2-2.1-2.2-1.6-4.2,1.2S312.6,76.4,314.7,78.9Z" fill="#f8c4da"/><path d="M336.5,70.8c1.4-2,5.3-8.7,10-10.1s6.5,2.6,6.9,5c.5,4.4-4.3,14.7-9.5,19.4,6-2,11.5-8.9,15.6-14.5.9-1.8,2.6-.3,1.9.9-1.7,3.2-8,11.8-13.5,14.6s-12.4,1.9-17.3-.4c-3.9,8.3-5.8,13.9-7.1,19.9-2.2,1.3-6.1-.7-5.5-3.8s3.6-9.7,6.9-19.1,11.2-23.2,11.2-25.2,6.5.6,5.8,2.2S338.3,67.2,336.5,70.8Zm-4.9,13a7.3,7.3,0,0,0,4.1.5c4.8-1.1,14.9-20.9,12-21.1S335.8,76.6,331.6,83.8Z" fill="#f8c4da"/><path d="M362.5,77.9a11.4,11.4,0,0,0-.6,3c-.1,2,.3,4.1,2.6,4.3,6.2.6,14.6-11.3,17.7-15.1.7-.9,2.7-.9,2.1.7-2.3,4.4-8.5,13.4-14.4,16.5s-11.7-.6-13.5-5.3c-2.7-7.2,5.4-19,11.3-21.7s11.4,2.9,10.6,6.7S368.1,75.5,362.5,77.9Zm1.5-3.5a40.1,40.1,0,0,0,9.5-8.2c1.9-2.5.4-3.6-2.2-1.3A38.1,38.1,0,0,0,364,74.4Z" fill="#f8c4da"/><path d="M388.1,71.9a5.5,5.5,0,0,1,2.2,4.3,20.6,20.6,0,0,1,0,6.1c4.9-3.5,9.4-9.3,11.6-12.2,1.2-.9,1.9.3,1.4,1.4-1.6,2.7-8,11.8-13.8,14.5-.5,1.6-1.1,3.3-1.9,5.4-3,6.9-6.7,12.4-10.7,13.2-2,.4-7.5-1.8-6.9-6.6s5.1-13.2,8.6-20.3a10,10,0,0,1,2.2-4.5c3.7-7.7,10.8-21.2,10.8-23.2s5.6-.8,5.8,2.3S391.9,64.5,388.1,71.9Zm-6.7,13.9c-3.7,7.7-7.8,16.9-5.5,16.5s6.6-8,9.2-15.4A7.6,7.6,0,0,1,381.4,85.8Zm4.6-1.6c1-3.6,1.6-7.8.9-9.8L385.6,77l-3,6.4A4.6,4.6,0,0,0,386,84.2Z" fill="#f8c4da"/><path d="M401.7,84.6c2.2.4,18.4-20,18.7-21.1s6.5.5,5.2,3-9.4,17.6-7.1,18.4,11.5-11,13.8-14.5c1.2-1.3,2.1-.3,1.7,1.1s-9.4,14.9-13.3,15.8-7.6-2-8.1-4.4.5-5.2.9-6.5c-.8,1.1-5.3,8.1-10.2,10.7-2.9,1.6-8.2-1.3-7.6-5.2,1-6.9,10.1-18.5,10.2-20.5s6.1.9,5.6,2.9S399.2,84.2,401.7,84.6Z" fill="#f8c4da"/><path d="M439.5,66.8c-4.8,9.5-8.9,19.6-5.3,19.3s6.9-5.8,9.6-9.5a1.1,1.1,0,0,1,1.4,1.1c-.3,1.6-3.1,9.4-7.3,11.2s-10.1-2-10.7-5.8,1.3-9.2,7.5-20.8c4-7.6,7.1-13.1,8.3-15.8s5.8.4,5.3,2.6S447.5,51.1,439.5,66.8Z" fill="#f8c4da"/><path d="M481.7,65.1c-5.2,10-12.2,25.2-12.8,28.6-2.9.2-6.2-1.7-5.8-3.7s9.4-21.1,11.8-25.7,5.9-11.1,8.4-14.9h-.5c-16.3.2-21.1,4.1-23.3,6.9s-3.1,6.7-.7,7.5c.9.7.7,1.6-.7,1.4-3.3-.1-8.6-6.2-2.9-12.5s19.9-6.5,28.7-6.4,17,.7,20.2-.7,1.5,1.4.9,1.8-7.1,1.8-16,2a2.2,2.2,0,0,1,.9,1.5C488.1,53.4,485.9,56.5,481.7,65.1Z" fill="#f8c4da"/><path d="M508.3,69c1.4,1.1,2.6,2.7,2.1,3.4a22.7,22.7,0,0,0-3.2,5.8c-1.8,4.2-2.6,6.7-1.2,6.5s11.8-11.4,13.5-14.1,2.7-.8,1.8.8-8.1,12.4-12.1,15.2-6.8.3-8.8-1.6-.6-5.1.6-7.7c-1.9,2.9-6,8.7-9.6,10.6-1.9,1-7.3-2.4-7.7-4.8s2.3-10.3,7.2-15.7,9.1-7.3,12.3-8,11,4.3,10.1,6.7S509.8,68.8,508.3,69Zm-1-.7c.2-1.4,2.1-4.7,1-5.7s-7.7,2.6-12,8.4c-6.4,8.5-7.4,13.2-6.5,13.5S502.3,73,504.9,68.2C505.3,67.6,506.2,67.8,507.3,68.3Z" fill="#f8c4da"/><path d="M528.3,65.7c-.3,1.6-1.7,2.9-4,7.3-3.9,7.5-4.6,12.1-2.5,11.7s11.4-10.8,13.6-14.3c1.2-1.6,2.7-.5,2.1.8-2.3,4.5-8.4,12.9-12.7,15.5s-7.3-.1-8.8-1.9-1.7-5.5,1.4-11.9,5.1-8.3,5.3-10.1S528.5,63.4,528.3,65.7Zm.8-7.9c-2-.4-2.3-2.9-.2-4.4a5.9,5.9,0,0,1,6.4-.2c1.4,1.3-.4,3.5-1.9,4.1A6.7,6.7,0,0,1,529.1,57.8Z" fill="#f8c4da"/><path d="M542.8,66.8c-4.7,9.5-8.3,20.1-4.9,18.5S548.8,73.8,551.3,70c1.1-1.6,2.6-.2,1.8,1.1-2.1,3.9-9.7,15.3-13.9,17.1s-8.1-1.3-8.7-5.1,1.3-9.2,7.5-20.8c4.1-7.6,7.1-13.1,8.3-15.8s5.8.4,5.4,2.6S547.9,56.6,542.8,66.8Z" fill="#f8c4da"/><path d="M543.2,80c2.1-2.4,6.9-8.5,10.1-12.6a11,11,0,0,1,2-4.9c1.8-2.4,4.2-4.6,6.8-4.6s4.3,4.2,3.3,4.9-5.9,2.4-5.9,7.1a11.7,11.7,0,0,0,1.6,5.1c4.9-.7,10.4-.9,12-.4a.8.8,0,0,1,.3,1.4c-.5-.2-5.6.4-11.2,1.4.9,2,1.3,3.9,0,5.9-2.4,3.5-5.6,4.3-9.9,4.6-7,.4-11.5-3.5-11-6C541.4,81.1,542.6,80.3,543.2,80Zm1.7,3.5c2.4,2,7.5,2.5,10.2-.2a4.5,4.5,0,0,0,1.1-4.6C551.2,79.9,546.3,81.8,544.9,83.5Zm10.3-7.3a21.5,21.5,0,0,1-1.8-4.8l-5.1,6.7C550.5,77.4,553,76.7,555.2,76.2Z" fill="#f8c4da"/></svg>