<svg id="Layer_1" data-name="Layer 1" xmlns="http://www.w3.org/2000/svg" width="9.8in" height="2.9in" viewBox="0 0 702.5 206.1"><title>animal-rescue</title><path d="M213.6,182.6c8.1-10.5,16.4-20.8,24.8-31,4.2-5.1,8.6-10.2,12.3-15.4A187.4,187.4,0,0,0,261,119.8c6.1-11.3,10.6-23.4,12.4-35.8s.6-25.1-4.1-36.6A62,62,0,0,0,245.7,19l-4-2.5c-1.5-.8-2.8-1.6-4.3-2.3a75.3,75.3,0,0,0-8.9-3.6,50.8,50.8,0,0,0-19-2.1,58.3,58.3,0,0,0-18.7,4.6,78.8,78.8,0,0,0-16.9,9.7,92.1,92.1,0,0,0-7.6,6.1,90.8,90.8,0,0,0-7.1,6.8c-2.3,2.3-4.4,4.7-6.5,7.2s-4.1,5.2-5.8,7.7a2.8,2.8,0,0,1-3.9.8l-.7-.6v-.2a84.7,84.7,0,0,0-6.4-7.2c-2.2-2.3-4.5-4.6-6.9-6.8a130.7,130.7,0,0,0-15.1-11.8c-2.7-1.8-5.4-3.4-8.2-4.9a72.8,72.8,0,0,0-8.5-4,74.6,74.6,0,0,0-8.8-2.8l-4.5-.9-2.3-.3H79.2a51,51,0,0,0-17.8,1.9l-1.1.3-1.1.4-2.1.7-2.1.9-2.2.9c-1.4.6-2.7,1.4-4.1,2.1s-2.7,1.5-4,2.3A61.6,61.6,0,0,0,20.8,47.9,62.3,62.3,0,0,0,16,65.4a71.6,71.6,0,0,0,.1,18.5,90.3,90.3,0,0,0,4.4,18.3,118.3,118.3,0,0,0,7.6,17.6,186.3,186.3,0,0,0,10.2,16.4c3.7,5.3,8.1,10.3,12.2,15.4,8.5,10.3,16.8,20.6,25,31a.8.8,0,0,1-.1.8.6.6,0,0,1-.7-.1c-9.5-9.2-18.9-18.6-28.2-28.1l-7-7.2-1.7-1.8a16.2,16.2,0,0,1-1.7-1.9l-3.3-3.9A130.9,130.9,0,0,1,21,123.8a121,121,0,0,1-9.3-18.3A99.9,99.9,0,0,1,6.1,85.4a79.1,79.1,0,0,1-.8-21.2,68.5,68.5,0,0,1,5.3-20.8A67.2,67.2,0,0,1,22.4,25.3,69.7,69.7,0,0,1,39,11.8l4.7-2.5a51.1,51.1,0,0,1,4.8-2.2l2.4-1,2.5-1L56,4.3l1.3-.5,1.3-.3A60.1,60.1,0,0,1,80.1,1.9a62.3,62.3,0,0,1,20.5,5.5,84.8,84.8,0,0,1,18,10.5,98.7,98.7,0,0,1,8,6.5c2.5,2.3,5,4.7,7.3,7.1s4.6,5,6.8,7.6,4.2,5.3,6.2,8.2h-4.7c2.2-2.8,4.4-5.2,6.7-7.7s4.7-4.8,7.2-7.1a136.4,136.4,0,0,1,15.8-12.6,92.9,92.9,0,0,1,8.5-5.3,88.5,88.5,0,0,1,18.8-7.7l5-1.1,2.5-.4,1.3-.2h1.2a60.8,60.8,0,0,1,20.4,1.4l1.3.3,1.2.4,2.5.7a11.7,11.7,0,0,1,2.4.9l2.4.9,4.7,2,4.6,2.3a70,70,0,0,1,16.6,12.6,63.1,63.1,0,0,1,12,17.3,66.2,66.2,0,0,1,5.8,20.4,77.7,77.7,0,0,1-.5,21A107.1,107.1,0,0,1,268,123.8a151.2,151.2,0,0,1-11.7,16.7l-3.3,3.9-1.7,1.9-1.7,1.8-7,7.1c-9.2,9.5-18.6,19-28.2,28.1a.6.6,0,0,1-.8,0C213.4,183.1,213.4,182.9,213.6,182.6Z" fill="#c81d6b"/><path d="M111.4,101.9c-4.7,7-9.1,14.2-13.1,21.6a119.5,119.5,0,0,0-10,22.9l-.8,2.9-.6,3a29.6,29.6,0,0,0-.3,5.9c.1.5.1,1,.2,1.4l.3,1.4.5,1.2c.2.5.5.9.7,1.3a17.7,17.7,0,0,0,3.4,4.6,16,16,0,0,0,4.7,3.1,17.1,17.1,0,0,0,5.5,1.4,18.2,18.2,0,0,0,5.7-.3,13.4,13.4,0,0,0,2.7-.7,6.1,6.1,0,0,0,2.3-1h.3l1-.8,1.1-.5,1-.4,3.4-.6c2.1-.3,3.9-.6,5-1.4l.3-.3a.8.8,0,0,0,.4-.4l.9-1,1.6-2.5a24.7,24.7,0,0,1,2.2-2.9,14.3,14.3,0,0,1,3.1-2.4l1.6-.9.4-.2h.4l.5-.3a7.7,7.7,0,0,0,2.1-1.4,10.5,10.5,0,0,0,2.7-4.1,14,14,0,0,0,.9-5.1,12.3,12.3,0,0,0-.2-2.7,29.3,29.3,0,0,0-.5-2.9c-.9-3.9-2.3-7.7-3.5-12-.6-2.1-1.1-4.3-1.5-6.5s-.3-2.3-.4-3.4a9.1,9.1,0,0,0-.1-1.7v-1.6a15.7,15.7,0,0,0-3.8-9.6l-1.9-2.3c-.7-.9-1.4-1.7-2.2-2.9a3.1,3.1,0,0,1-.5-1,5.4,5.4,0,0,1-.6-1.1l-.2-.6v-.4l-.2-.6-.5-1.2-.6-1.3A37.6,37.6,0,0,0,109.2,77c-.8-.5-1.7-.8-2.5-1.2l-1.3-.6-1.4-.4-2.7-.8-2.7-.6-1.4-.3H95.7l-2.8-.3H87.2a11.9,11.9,0,0,0-4.5,1l-2.2,1.3A29.4,29.4,0,0,1,77.2,77,15.5,15.5,0,0,1,73,78.2a15.2,15.2,0,0,1-2.1.3H69a30,30,0,0,1-7.4-.9,114.2,114.2,0,0,1-12.5-4.2,25.3,25.3,0,0,0-5.2-1.6H42.8l.7-.4c.3-.3.2-.3.2-.1a7.3,7.3,0,0,0-.7,2c-.2.9-.5,1.9-.7,2.9a18.6,18.6,0,0,1-1,3.7l-.4,1.1a4.7,4.7,0,0,1-.5,1,18.6,18.6,0,0,1-1.2,1.8l-.6.9-.3.7L38,86.3a2.1,2.1,0,0,0-.2.6.9.9,0,0,1-.1.5v2.3l.2,1.3.2,1.3a37.1,37.1,0,0,0,3.6,10.8,16.5,16.5,0,0,0,2.9,4l4.8,4,4.9,4c1.6,1.3,3.3,2.6,4.9,4.1a30.1,30.1,0,0,1,2.6,2.5,9.8,9.8,0,0,1,2.1,3.6,13.3,13.3,0,0,1,.5,3.8c0,1.2,0,2.3-.1,3.3a91.5,91.5,0,0,1-1.7,12.8,51.5,51.5,0,0,1-4.1,12.2.4.4,0,0,1-.6.3.5.5,0,0,1-.2-.6h0a58.2,58.2,0,0,0,1.4-6c.3-2.1.5-4.1.7-6.2a102.6,102.6,0,0,0,.2-12.4c-.1-2.1-.2-4.2-.8-5.4a4.8,4.8,0,0,0-1.3-1.7l-2.2-1.7-10.3-7.2-5.2-3.7a22.1,22.1,0,0,1-5-5.8,44.5,44.5,0,0,1-5.3-12.8l-.4-1.8-.3-1.8c0-.6-.1-1.3-.1-1.9a14.7,14.7,0,0,1,0-2.1l.2-1.1c0-.4.1-.7.1-1s.3-1.3.5-1.9a10.2,10.2,0,0,1,.9-2.2l1.1-1.8.5-.9.2-.3v-.5q.3-1,.6-2.4a19.1,19.1,0,0,1,.6-3.3,15.2,15.2,0,0,1,1.1-4,8.4,8.4,0,0,1,5.4-4.7,9.6,9.6,0,0,1,2.8-.3h1.2l1.1.2a35.9,35.9,0,0,1,6.9,1.9c4.1,1.4,7.9,3,11.5,3.8a23.2,23.2,0,0,0,5.2.7h2.3a4.8,4.8,0,0,0,1.8-.5,17.2,17.2,0,0,0,2.2-1.2,17.9,17.9,0,0,1,3.4-1.8,20.3,20.3,0,0,1,7.8-1.7,10.8,10.8,0,0,1,1.8,0h1.7l3.4.2,3.4.4,1.8.3,1.7.4,3.3.8,3.3,1.2,1.7.6,1.5.8a22.5,22.5,0,0,1,3.1,1.6,43.9,43.9,0,0,1,10.8,8.8,49,49,0,0,1,7.5,11.6l.7,1.6.6,1.7.3,1v.2h.1c0,.1.1.2.1.3l.3.5c.8,1.3,2.3,3,3.6,4.8a29.3,29.3,0,0,1,3.5,6.3,19.3,19.3,0,0,1,1.3,7.4v3a25.8,25.8,0,0,0,.3,2.9,37.1,37.1,0,0,0,1.1,5.8c1,4,2.4,8.1,3.2,12.4s1.2,9.6-.8,14.2a17.1,17.1,0,0,1-4.5,6.2,17.7,17.7,0,0,1-3.2,2.1l-1.6.7-1.1.5a9.2,9.2,0,0,0-3.6,3.5l-1.9,2.8-1.3,1.4-.7.7-.9.6a9.6,9.6,0,0,1-3.7,1.5l-3.4.6a17,17,0,0,0-2.8.4h-.5l-.4.2H116l-.3.2-.5.4a20.5,20.5,0,0,1-3.5,1.5l-3.4.7a26.6,26.6,0,0,1-6.9.1,22.5,22.5,0,0,1-6.7-2,20.6,20.6,0,0,1-5.7-4.1,21.7,21.7,0,0,1-3.9-5.6l-.7-1.5-.6-1.7a11.6,11.6,0,0,1-.4-1.8,9.7,9.7,0,0,1-.1-1.7,29.4,29.4,0,0,1,.5-6.7c.2-1.1.5-2.1.8-3.2l.9-3.1a125.1,125.1,0,0,1,11.1-23,227.8,227.8,0,0,1,14.1-21.1.4.4,0,1,1,.7.5Z" fill="#c81d6b"/><path d="M216.4,176.8a30.7,30.7,0,0,1-2.9-3.4,39.7,39.7,0,0,1-2.3-3.9,22,22,0,0,1-2.2-8.8.9.9,0,0,1,.4-.8h0c2.7-1.9,5.2-3.9,7.7-5.9s4.9-4.3,7.2-6.6a47.4,47.4,0,0,0,6-7.4c1.7-2.5,3-5.4,2.8-8l.4,1.1-4.4-5.1a2.1,2.1,0,0,1-.4-1.7v-.2a32.2,32.2,0,0,0,1.2-13,23.2,23.2,0,0,0-5.1-11.4,52.5,52.5,0,0,0-4.6-4.9l-.3-.3-.2-.2-.3-.3a6.5,6.5,0,0,1-.9-1.6,8.4,8.4,0,0,1-.5-2.9,18,18,0,0,1,.9-4.4,48.8,48.8,0,0,1,3.3-6.9,72,72,0,0,1,4-6.2l4.1,5.1a130.3,130.3,0,0,1-15,6,68.5,68.5,0,0,1-8.1,2,31.3,31.3,0,0,1-4.4.4h-2.6l-1.2-.2-1.2-.3a24.1,24.1,0,0,1-4.3-1.5l-3.8-2c-2.5-1.4-4.7-2.9-7-4.5L176.3,74c-2.1-1.8-4.1-3.4-6.2-5.4l8-2.2c-.5,2.1-.9,4.4-1.3,6.5l-.9,6.6a45,45,0,0,0-.3,6.3,15.5,15.5,0,0,0,.6,5.2h0a5.1,5.1,0,0,1-.8,4.8l-.3.3-.3.4-.6.8L173,99.1c-.7,1.2-1.5,2.5-2.1,3.8a50.1,50.1,0,0,0-6.1,25.5,44.1,44.1,0,0,0,.9,8.9,55.4,55.4,0,0,0,2.3,8.9,93.5,93.5,0,0,0,8.1,16.9.5.5,0,0,1-.1.7c-.2.1-.5.1-.6-.1a67.5,67.5,0,0,1-11.5-15.8,60.3,60.3,0,0,1-3.8-9.1,64.6,64.6,0,0,1-2.2-9.9,58,58,0,0,1-.3-10.2,68.5,68.5,0,0,1,1.6-10.1,65.6,65.6,0,0,1,3.4-9.7,52.1,52.1,0,0,1,2.4-4.7l1.3-2.2a10.5,10.5,0,0,1,.8-1.1l.4-.6.5-.6-.8,4.8a21,21,0,0,1-1.1-4.5c-.2-1.4-.3-2.7-.4-4s.2-5.1.4-7.6.7-4.8,1.2-7.2,1-4.7,1.6-7.1h0a4.7,4.7,0,0,1,5.8-3.3,4,4,0,0,1,2.1,1.2c3.5,3.5,7.2,7,11.1,10.2,2,1.5,4,3,6,4.3a28.7,28.7,0,0,0,6.1,3l.7.2h2l3.4-.3a47.4,47.4,0,0,0,7.1-1.5A100,100,0,0,0,227.4,73h.1a3.3,3.3,0,0,1,4.4,1.7,3.4,3.4,0,0,1-.4,3.4,51.8,51.8,0,0,0-6.8,11.1c-.3,1-.6,1.9-.7,2.5a2.2,2.2,0,0,0,.1.6h0l.3.4a52.3,52.3,0,0,1,4.8,5.6,28.3,28.3,0,0,1,5.5,14.3,36.2,36.2,0,0,1-2,14.7l-.4-1.9,4.1,5.3h.1a1.8,1.8,0,0,1,.4,1,14.8,14.8,0,0,1-1.2,5.6,25.1,25.1,0,0,1-2.6,4.5,55,55,0,0,1-6.8,7.6c-2.5,2.2-5,4.4-7.7,6.4a89.7,89.7,0,0,1-8.1,5.6l.4-.8a21.1,21.1,0,0,0,1.7,8.2,26.9,26.9,0,0,0,1.9,3.8,29.9,29.9,0,0,0,2.5,3.4h.1a.5.5,0,0,1-.1.6A.4.4,0,0,1,216.4,176.8Z" fill="#c81d6b"/><path d="M381.5,153.5h-8.6l-1.6,5.8h-5.8l8.6-29.3h6.3l8.4,29.3H383Zm-7.3-4.9h6.1l-3-11.5Z" fill="#58b849"/><path d="M396.7,159.3h-5.4V136h5.1v2.6a6.2,6.2,0,0,1,5.5-2.9c4.3,0,7,2.6,7,8.6v15h-5.5V144.7c0-2.9-1.2-4.1-3.3-4.1s-3.4,1.2-3.4,4.2Z" fill="#58b849"/><path d="M415.9,133.2a3.3,3.3,0,1,1,0-6.6,3.3,3.3,0,1,1,0,6.6Zm2.7,26.1h-5.4V136h5.4Z" fill="#58b849"/><path d="M428.9,159.3h-5.5V136h5.1v2.4a5.4,5.4,0,0,1,4.9-2.7,5.8,5.8,0,0,1,5.5,3.2,6.5,6.5,0,0,1,5.8-3.2c4,0,6.3,2.6,6.3,8.2v15.4h-5.5V143.7c0-2.3-1.3-3.2-2.8-3.2a2.8,2.8,0,0,0-2.8,3.1v15.7h-5.5V143.7c0-2.3-1.1-3.2-2.7-3.2s-2.8.9-2.8,3.1Z" fill="#58b849"/><path d="M454.5,151.1v-6.8c0-6,2.9-8.6,7-8.6a6.2,6.2,0,0,1,5.6,2.9V136h5.1v23.3h-5.1v-2.6a6.2,6.2,0,0,1-5.6,3C457.3,159.7,454.5,157,454.5,151.1Zm12.2-.5v-6c0-2.8-1.4-4.1-3.3-4.1s-3.3,1.3-3.3,4.2v5.9c0,2.9,1.3,4.2,3.3,4.2S466.7,153.5,466.7,150.6Z" fill="#58b849"/><path d="M482.5,159.3H477V128h5.5Z" fill="#58b849"/><path d="M497,159.3V130h9.3c5.8,0,9.8,3.8,9.8,10.6v.9c0,4.5-2,7.5-5.1,8.9l4.9,8.9h-6.3l-3.9-7.5h-3v7.5Zm5.7-23.8v10.8h2.9c2.5,0,4.8-1.1,4.8-4.9v-.9c0-4-2.3-5-4.8-5Z" fill="#58b849"/><path d="M537.3,151.8v.2c0,4.3-3.3,7.7-8.8,7.7s-8.9-3.5-8.9-9.1v-5.7c0-5.7,3.2-9.2,8.9-9.2s8.8,3.3,8.8,9v4.6H525v2.5a3.5,3.5,0,0,0,3.5,3.5,3,3,0,0,0,3.3-3v-.5ZM525,145.4h6.8v-1.1c0-3.1-1.3-4.1-3.3-4.1a3.2,3.2,0,0,0-3.5,3.5Z" fill="#58b849"/><path d="M557.6,143.7h-5.4c0-2.7-1.4-3.4-3.4-3.4s-2.9.9-2.9,2.3c0,4.3,12,2,12,10.1,0,4.5-3.2,7.1-8.9,7.1s-9.1-3.1-9.1-8.3h5.5c0,2.6,1.5,3.7,3.6,3.7s3.3-1.2,3.3-2.5c0-4.1-11.8-1.9-11.8-10.1,0-4.3,3.1-6.9,8.3-6.9S557.6,138.3,557.6,143.7Z" fill="#58b849"/><path d="M578.6,150.3c0,5.9-3.1,9.4-8.8,9.4s-8.9-3.5-8.9-9.1v-5.7c0-5.6,3.2-9.2,8.9-9.2s8.8,3.5,8.8,9.6h-5.5c0-3.3-1.3-4.7-3.3-4.7s-3.4,1.1-3.4,4.1v5.4c0,3.1,1.1,4.7,3.4,4.7s3.3-1.4,3.3-4.5Z" fill="#58b849"/><path d="M594.1,136h5.5v14.7c0,5.5-3.5,9-8.9,9s-8.8-3.5-8.8-9V136h5.4v15.5a3.4,3.4,0,1,0,6.8,0Z" fill="#58b849"/><path d="M620.7,151.8v.2c0,4.3-3.3,7.7-8.8,7.7s-8.9-3.5-8.9-9.1v-5.7c0-5.7,3.3-9.2,8.9-9.2s8.8,3.3,8.8,9v4.6H608.5v2.5a3.5,3.5,0,0,0,3.4,3.5,3,3,0,0,0,3.3-3v-.5Zm-12.2-6.4h6.7v-1.1c0-3.1-1.2-4.1-3.3-4.1a3.2,3.2,0,0,0-3.4,3.5Z" fill="#58b849"/><path d="M328.8,54.4c-6.1,1.2-17.6,14.3-15.2,18.4.9,1.6-1,1.7-2.5.3-6.9-6.7,2.6-19,10.4-21.5,5.9-1.9,16.8,2,17.3,9,.2,3.5-1.1,9.6-6.5,21.4l-.2.2a77.1,77.1,0,0,1,14.3-1.5l1-2c5.6-11.3,12.4-22,15-24.6s8.7-1,8.9,1.1c-2.1,1.9-8,9.4-16.1,26.3A10.9,10.9,0,0,1,359,83c1.2.7.6,2.3-1.3,2.4a16.1,16.1,0,0,0-3.8-1c-2,4.5-8.4,20.8-6.6,24.9.4.9,1.4.9,2,.9s.4,1.9-1.4,1.9c-4.4.1-9.1-4.2-9.1-8.9s2.3-10.9,6-19.1a81,81,0,0,0-14.6,2.6h-.4c-4.7,8.7-14.4,24.2-20.3,24.8s-13.5-7.7-10.1-13.4c2.1-3.7,10.3-9.8,22.8-13.6l1.7-3.4c6.1-12.4,9.1-22.4,8.2-25.6C332,55.1,331,54,328.8,54.4ZM318.4,90.8a40.5,40.5,0,0,0-12.8,9.3c-2.2,2.4-3.5,7.3-.8,6.9S313.2,99.1,318.4,90.8Z" fill="#f8c4da"/><path d="M383.1,76.1c2.9.2,6.2,1.8,6,6.4-.1,2.7-2.3,8.7-5.7,14,6.3-.7,13.2-11.8,14.2-13s2.7-.7,1.9,1-4.7,9.7-11.1,13.4a12.4,12.4,0,0,1-7.2,1.7,21.2,21.2,0,0,1-7.6,6.3c-5.4,2.1-13.9-3.4-14.5-9.6-.9-9.3,7.3-23.6,15.8-24.6,3-.4,7.3,2,8.1,3.9C383.1,75.9,383.2,76.1,383.1,76.1ZM371,83.4c-3.2,4.9-5.6,11.3-5.3,16.7s3,2.8,4.9,1.5a32.6,32.6,0,0,0,4.8-4.5,7.6,7.6,0,0,1-1.3-1.7c-2-2.8-2-6.2-1.2-9.4s4.5-9.6,9.2-9.9C377.1,75.3,373.8,79,371,83.4Zm6.5,11.2c3.4-4.4,6.2-9.7,6.6-14.3.3-2.6-2.7-2-5.1,1.4S375,91.5,377.5,94.6Z" fill="#f8c4da"/><path d="M403.7,84.8c1.7-2.3,6.3-10.5,12-12.1,3.9-1.2,7.9,3.1,8.3,6,.6,5.3-5.2,17.6-11.5,23.4,7.2-2.5,13.9-10.8,18.8-17.6,1.1-2.1,3.1-.3,2.3,1.2-2,3.8-9.6,14.2-16.3,17.5s-14.8,2.3-20.7-.5c-4.8,10.1-7,16.8-8.6,23.9-2.6,1.6-7.3-.7-6.6-4.4s4.4-11.8,8.3-23,13.5-28,13.5-30.4c1.6-1.4,7.8.7,7,2.7C408.8,75,405.9,80.5,403.7,84.8Zm-5.9,15.7a8.4,8.4,0,0,0,4.9.6c5.8-1.4,17.9-25.1,14.5-25.5S402.8,91.8,397.8,100.5Z" fill="#f8c4da"/><path d="M434.9,93.3a13.3,13.3,0,0,0-.7,3.7c-.1,2.3.4,4.9,3.1,5.1,7.4.7,17.6-13.6,21.3-18.1.9-1,3.2-1,2.5.8-2.7,5.3-10.1,16.2-17.3,19.8s-14-.6-16.2-6.4c-3.2-8.5,6.5-22.8,13.6-26s13.7,3.4,12.8,8S441.7,90.5,434.9,93.3Zm1.9-4.2c4.4-2.8,9.2-7,11.3-9.8s.5-4.3-2.5-1.6A43.7,43.7,0,0,0,436.8,89.1Z" fill="#f8c4da"/><path d="M465.7,86.2q2.3,1.3,2.7,5.1a30.3,30.3,0,0,1,0,7.4c5.9-4.2,11.2-11.2,14-14.7,1.4-1,2.2.3,1.6,1.6-1.9,3.3-9.6,14.2-16.6,17.5-.6,1.9-1.3,4-2.3,6.5-3.6,8.3-8.1,15-12.9,15.9-2.4.5-9-2.2-8.3-7.9s6.1-16,10.4-24.5a12.4,12.4,0,0,1,2.6-5.4c4.5-9.2,13.1-25.4,13-27.9s6.8-.9,7,2.7S470.2,77.3,465.7,86.2Zm-8,16.6c-4.5,9.3-9.5,20.4-6.7,19.9s7.9-9.6,11.1-18.5A8.8,8.8,0,0,1,457.7,102.8Zm5.5-1.8c1.1-4.3,1.9-9.5,1-11.9l-1.4,3.2-3.7,7.7A6.4,6.4,0,0,0,463.2,101Z" fill="#f8c4da"/><path d="M482.1,101.5c2.7.4,22.1-24.1,22.5-25.4s7.7.5,6.2,3.5-11.3,21.2-8.5,22.1,13.9-13.1,16.6-17.4c1.4-1.5,2.5-.3,2,1.4-1.8,3.2-11.3,17.9-16,19s-9.1-2.5-9.8-5.3.6-6.3,1.1-7.8c-.9,1.2-6.4,9.7-12.2,12.9-3.5,1.9-9.9-1.6-9.2-6.3,1.2-8.3,12.2-22.3,12.4-24.6s7.2,1,6.6,3.4S479.1,101,482.1,101.5Z" fill="#f8c4da"/><path d="M527.5,80c-5.7,11.4-10.7,23.6-6.4,23.2s8.3-7,11.6-11.4a1.2,1.2,0,0,1,1.6,1.3c-.3,1.9-3.7,11.3-8.8,13.4s-12.1-2.4-12.8-6.9,1.6-11,9-25c4.9-9.2,8.6-15.7,10.1-19.1s6.9.5,6.4,3.2S537.1,61.1,527.5,80Z" fill="#f8c4da"/><path d="M578.3,78c-6.3,12-14.6,30.3-15.4,34.4-3.5.2-7.5-2-7.1-4.5S567.1,82.5,570,77s7.2-13.4,10.2-18h-.6c-19.6.3-25.3,5-28.1,8.3s-3.7,8.2-.8,9.1c1.2.9.8,2-.8,1.7-3.9-.1-10.3-7.4-3.5-15.1s23.9-7.8,34.5-7.6,20.5.8,24.4-.9,1.7,1.7,1,2.2S597.7,58.9,587,59a2.7,2.7,0,0,1,1.1,1.9C585.9,63.9,583.3,67.7,578.3,78Z" fill="#f8c4da"/><path d="M610.2,82.7c1.8,1.3,3.2,3.2,2.5,4.1a28.1,28.1,0,0,0-3.8,7c-2.1,4.9-3.1,7.9-1.4,7.8s14.2-13.7,16.2-17.1c1.1-1.5,3.2-.9,2.2,1-2,3.7-9.8,15-14.6,18.3s-8.2.4-10.5-1.9-.8-6.2.7-9.2c-2.3,3.5-7.3,10.4-11.6,12.7-2.2,1.1-8.7-2.9-9.2-5.8s2.7-12.3,8.6-18.9,11-8.8,14.8-9.6,13.3,5.2,12.1,8S612.1,82.5,610.2,82.7Zm-1.2-.8c.3-1.8,2.6-5.8,1.2-6.9s-9.2,3.1-14.4,10c-7.7,10.2-8.9,16-7.8,16.3s15-13.9,18.2-19.6C606.6,81,607.8,81.2,609,81.9Z" fill="#f8c4da"/><path d="M634.2,78.7c-.2,1.9-1.9,3.5-4.7,8.8-4.6,9-5.6,14.5-3.1,14.1s13.8-13.1,16.5-17.3c1.4-1.9,3.1-.5,2.5,1-2.8,5.4-10.1,15.5-15.3,18.7s-8.7-.1-10.6-2.4-2-6.5,1.7-14.2,6.2-10,6.4-12.3S634.6,76,634.2,78.7Zm1.1-9.5c-2.5-.5-2.8-3.5-.3-5.3s5.7-1.7,7.7-.2-.5,4.2-2.2,4.9A8.1,8.1,0,0,1,635.3,69.2Z" fill="#f8c4da"/><path d="M651.8,80c-5.8,11.4-10,24.2-5.9,22.3S659,88.4,662,83.9c1.2-1.9,3.1-.3,2.1,1.3-2.4,4.6-11.7,18.4-16.7,20.6s-9.8-1.7-10.4-6.2,1.6-11,9-25c4.9-9.2,8.5-15.7,10-19.1s6.9.5,6.4,3.2S657.9,67.8,651.8,80Z" fill="#f8c4da"/><path d="M652.2,95.9c2.6-2.9,8.4-10.2,12.2-15.1a13.1,13.1,0,0,1,2.4-6c2.2-2.9,5.1-5.5,8.1-5.5s5.3,5.1,4,5.8-7.1,3-7,8.7a13.2,13.2,0,0,0,1.9,6c5.8-.8,12.4-1,14.3-.4s1,1.3.5,1.7-6.9.4-13.5,1.7c1.1,2.4,1.6,4.7,0,7-2.9,4.3-6.8,5.2-12,5.6-8.3.5-13.8-4.3-13.2-7.2C650.1,97.2,651.5,96.2,652.2,95.9Zm2.1,4.2c2.9,2.5,9,3,12.3-.3a5.4,5.4,0,0,0,1.2-5.5C661.8,95.8,656,98.1,654.3,100.1Zm12.3-8.8a28.6,28.6,0,0,1-2.1-5.8c-1.9,2.7-4.2,5.5-6.2,8.1C661,92.8,664,91.9,666.6,91.3Z" fill="#f8c4da"/></svg>