<svg id="Layer_1" data-name="Layer 1" xmlns="http://www.w3.org/2000/svg" width="3.6in" height="2.9in" viewBox="0 0 256 210"><title>logo</title><path d="M176.4,132c5.7-7.4,11.5-14.6,17.4-21.8,2.9-3.6,6-7.1,8.6-10.8a123.3,123.3,0,0,0,7.2-11.5,78.5,78.5,0,0,0,5.5-12.2,64.1,64.1,0,0,0,3.2-12.9,49.6,49.6,0,0,0-2.8-25.6,43.9,43.9,0,0,0-16.6-19.9,48.5,48.5,0,0,0-12.1-5.9,36.8,36.8,0,0,0-13.2-1.5,40.7,40.7,0,0,0-13.2,3.3A53.2,53.2,0,0,0,148.6,20c-1.9,1.3-3.6,2.7-5.4,4.2s-3.3,3.1-4.9,4.8-3.1,3.3-4.6,5.1-2.8,3.6-4.1,5.4a1.9,1.9,0,0,1-2.7.5.8.8,0,0,1-.4-.4h-.1a92.9,92.9,0,0,0-20-18.2,68.2,68.2,0,0,0-11.6-6.2,46.1,46.1,0,0,0-12.6-2.9,37.8,37.8,0,0,0-12.5,1.3A53.3,53.3,0,0,0,58,18.8,43.9,43.9,0,0,0,41.3,37.6c-3.5,7.7-4.4,16.5-3.3,25.2a58.3,58.3,0,0,0,3.1,12.8,78.7,78.7,0,0,0,5.3,12.3c2.2,4,4.6,7.8,7.2,11.6s5.6,7.2,8.5,10.8c5.9,7.1,11.8,14.4,17.5,21.7.1.2.1.4-.1.5h-.4q-10-9.7-19.8-19.8l-4.9-5c-1.6-1.6-3.1-3.5-4.7-5.3a106.2,106.2,0,0,1-8.3-11.6,86.5,86.5,0,0,1-6.5-12.9A73.4,73.4,0,0,1,31,63.8a51.4,51.4,0,0,1,3.2-29.4A47.8,47.8,0,0,1,54,12.3l3.3-1.8,3.4-1.6a49.3,49.3,0,0,1,7.1-2.4A42.6,42.6,0,0,1,82.9,5.3,46.7,46.7,0,0,1,97.2,9.2a56.1,56.1,0,0,1,12.6,7.3c2,1.5,3.8,3,5.6,4.6s3.5,3.3,5.2,5a89,89,0,0,1,9,11.1h-3.2a87.7,87.7,0,0,1,9.7-10.4,104.3,104.3,0,0,1,11-8.9,75.7,75.7,0,0,1,12.5-6.8c2.2-.9,4.4-1.6,6.7-2.3l3.5-.7a21.1,21.1,0,0,1,3.5-.5,42.8,42.8,0,0,1,14.3.9A55.9,55.9,0,0,1,201,13.8a50,50,0,0,1,11.6,8.8,49.4,49.4,0,0,1,8.5,12.2,49.8,49.8,0,0,1,4,14.3,51.8,51.8,0,0,1-.4,14.7,67.4,67.4,0,0,1-3.8,14,78.4,78.4,0,0,1-6.4,13,93.5,93.5,0,0,1-8.2,11.6,60.6,60.6,0,0,1-4.7,5.4l-4.8,5c-6.5,6.6-13.1,13.2-19.9,19.7h-.5A.4.4,0,0,1,176.4,132Z" fill="#c81d6b"/><path d="M104.8,75.4c-3.3,4.9-6.4,9.9-9.2,15.1a88.2,88.2,0,0,0-7,16.1,27.3,27.3,0,0,0-1,4.1,19.7,19.7,0,0,0-.2,4.2,10.6,10.6,0,0,0,.4,1.9l.3.9.5.9.5.9.6.8.6.8.7.7a11.9,11.9,0,0,0,3.3,2.2,10.1,10.1,0,0,0,3.8.9,17.9,17.9,0,0,0,4-.1l1.9-.5,1.6-.7h.2l.8-.6.7-.3.7-.3,2.4-.4a7.7,7.7,0,0,0,3.5-1c.1-.1.2-.1.2-.2l.3-.3.6-.7a12.6,12.6,0,0,0,1.1-1.7,13,13,0,0,1,1.6-2.1,17.3,17.3,0,0,1,2.1-1.7l2.1-1a7.1,7.1,0,0,0,1.4-1,7.2,7.2,0,0,0,2-2.8,10.9,10.9,0,0,0,.6-3.6,18.1,18.1,0,0,0-.5-3.9c-.6-2.8-1.6-5.5-2.5-8.4a37.8,37.8,0,0,1-1-4.6l-.3-2.4V84.1a10.8,10.8,0,0,0-2.6-6.7c-.9-1.1-1.8-2.1-2.9-3.7a4.3,4.3,0,0,1-.4-.7l-.4-.7-.2-.8v-.4l-.4-.8-.4-.9A26.5,26.5,0,0,0,103.3,58a15.1,15.1,0,0,0-1.8-.9l-.9-.4-1-.3-1.9-.6-1.9-.4-2-.3-2-.2h-4a8.9,8.9,0,0,0-3.1.7l-1.6.9a11.7,11.7,0,0,1-2.3,1.3,10.8,10.8,0,0,1-2.9.9l-1.5.2H75a21.6,21.6,0,0,1-5.1-.6,82.2,82.2,0,0,1-8.8-3,23.6,23.6,0,0,0-3.6-1.1h-.8s.4-.1.5-.3h.1l-.5,1.4c-.1.7-.3,1.4-.4,2.1s-.4,1.6-.7,2.6L55,61.3a7.4,7.4,0,0,1-.8,1.3l-.4.6-.3.5a2.4,2.4,0,0,1-.2.8c0,.1-.1.3-.1.4v.3a10.7,10.7,0,0,0,.2,3.5,27.6,27.6,0,0,0,2.5,7.5A9.3,9.3,0,0,0,58,79l3.3,2.9c2.3,1.9,4.6,3.6,6.9,5.6.6.6,1.2,1.1,1.8,1.8a7,7,0,0,1,1.5,2.5,8.8,8.8,0,0,1,.4,2.7c0,.8-.1,1.5-.1,2.3a69.4,69.4,0,0,1-1.2,9,37.1,37.1,0,0,1-2.9,8.5c0,.2-.2.3-.4.2a.4.4,0,0,1-.2-.4h0a22.3,22.3,0,0,0,1-4.3c.2-1.4.4-2.9.5-4.3a63.2,63.2,0,0,0,.1-8.7,10,10,0,0,0-.5-3.8,3.1,3.1,0,0,0-.9-1.2l-1.5-1.2-7.3-5L54.9,83a16.3,16.3,0,0,1-3.5-4.1,32.5,32.5,0,0,1-3.8-9,21.2,21.2,0,0,1-.5-5.3v-.8c0-.3.1-.4.1-.7a9.3,9.3,0,0,1,.4-1.3,4.7,4.7,0,0,1,.6-1.5,7.4,7.4,0,0,1,.8-1.3,1.5,1.5,0,0,0,.3-.6l.3-.6.3-1.7a15.7,15.7,0,0,0,.4-2.3,17.4,17.4,0,0,1,.9-2.8,5.8,5.8,0,0,1,1.3-1.9A5.4,5.4,0,0,1,55,47.7a7.5,7.5,0,0,1,2-.2h1.6A41.9,41.9,0,0,1,63.5,49a83.9,83.9,0,0,0,8,2.7c2.4.5,5.1.7,6.5,0l1.6-.8a15.7,15.7,0,0,1,2.3-1.3,16,16,0,0,1,5.5-1.2h4.8l2.4.4,2.4.4,2.4.6,2.3.8,1.2.5,1.1.5,2.1,1.1a31.1,31.1,0,0,1,12.8,14.3l.5,1.2.4,1.2.2.6v.2h0c0,.1.1.2.1.3s.1.1.2.3a41.2,41.2,0,0,0,2.5,3.3,16.3,16.3,0,0,1,2.5,4.5,15,15,0,0,1,.9,5.2v1.1c0,.3.1.6.1,1a13.6,13.6,0,0,0,.2,2,29.3,29.3,0,0,0,.7,4.1c.7,2.7,1.7,5.6,2.3,8.7a16.2,16.2,0,0,1-.6,9.9,10.1,10.1,0,0,1-3.1,4.3,11.4,11.4,0,0,1-2.3,1.5l-1.9.9a6.3,6.3,0,0,0-2.5,2.4l-1.3,2-.9.9c-.1.2-.3.3-.5.5l-.6.5a11.9,11.9,0,0,1-5,1.4l-2,.3h-1.1l-.3.3a17.4,17.4,0,0,1-2.5,1.1l-2.4.5a19.3,19.3,0,0,1-4.8,0,15.7,15.7,0,0,1-4.7-1.3,14.7,14.7,0,0,1-4-2.9l-.8-.9-.7-1a8.6,8.6,0,0,1-.7-1l-.5-1-.6-1.1-.4-1.2a9.9,9.9,0,0,1-.3-2.4,14.5,14.5,0,0,1,.4-4.7,31.5,31.5,0,0,1,1.1-4.4,89.7,89.7,0,0,1,7.8-16.2A158.9,158.9,0,0,1,104.3,75h.4a.2.2,0,0,1,.1.4Z" fill="#c81d6b"/><path d="M178.4,127.9a22.5,22.5,0,0,1-2.1-2.4c-.6-.9-1.1-1.8-1.6-2.7s-.8-2-1.1-3a11.2,11.2,0,0,1-.4-3.2c-.1-.2.1-.4.2-.5h.1a78.6,78.6,0,0,0,10.4-8.7,35.4,35.4,0,0,0,4.2-5.2c1.2-1.8,2.1-3.8,1.9-5.6l.3.8-3-3.6a1.3,1.3,0,0,1-.3-1.2h0a24.2,24.2,0,0,0,.8-9.2,15.7,15.7,0,0,0-3.6-8,32.8,32.8,0,0,0-3.1-3.4l-.6-.6a2.4,2.4,0,0,1-.6-1.1,3.6,3.6,0,0,1-.3-2,8.9,8.9,0,0,1,.6-3,27.5,27.5,0,0,1,2.3-4.9,28.7,28.7,0,0,1,2.8-4.3l2.8,3.5a104.4,104.4,0,0,1-10.5,4.2,36.5,36.5,0,0,1-5.7,1.4,15.5,15.5,0,0,1-3.1.3,1.4,1.4,0,0,1-.9,0H167l-1.7-.4a32.5,32.5,0,0,1-5.7-2.4,57.2,57.2,0,0,1-4.8-3.2,100.1,100.1,0,0,1-8.9-7.2l5.6-1.6-.9,4.6-.6,4.6a33.7,33.7,0,0,0-.3,4.4,12.7,12.7,0,0,0,.5,3.7h0a3.1,3.1,0,0,1-.6,3.2l-.4.5-.4.6-.8,1.2c-.6.9-1.1,1.8-1.6,2.7a38.8,38.8,0,0,0-2.3,5.6A34.1,34.1,0,0,0,142.2,94a32.6,32.6,0,0,0,.6,6.2,43.7,43.7,0,0,0,1.7,6.2,61.4,61.4,0,0,0,5.6,11.9c.1.2.1.4-.1.5h-.4a49.3,49.3,0,0,1-8-11,41.1,41.1,0,0,1-4.2-13.4,33.5,33.5,0,0,1-.2-7.1,33.9,33.9,0,0,1,1.1-7.1,42.3,42.3,0,0,1,2.4-6.8c.5-1.1,1-2.2,1.6-3.3a13,13,0,0,1,1-1.5,5.6,5.6,0,0,1,.5-.8l.6-.9-.5,3.4a15.1,15.1,0,0,1-1-6,47,47,0,0,1,.2-5.3c.2-1.7.5-3.4.8-5a45.4,45.4,0,0,1,1.2-5h0a3.3,3.3,0,0,1,4-2.3,3.8,3.8,0,0,1,1.5.9c2.4,2.4,5.1,4.9,7.8,7.1s2.8,2.1,4.2,3a18.3,18.3,0,0,0,4.2,2.1l1,.3h.9l2.4-.2a40.2,40.2,0,0,0,5-1,84.9,84.9,0,0,0,10-3.6h.1a2.2,2.2,0,0,1,3,1.2,2.1,2.1,0,0,1-.3,2.3,35.2,35.2,0,0,0-4.7,7.8,4.9,4.9,0,0,0-.5,1.8v.4h0l.2.3a31.7,31.7,0,0,1,3.4,3.9,20.2,20.2,0,0,1,3.9,10,23.3,23.3,0,0,1-.2,5.3,40.5,40.5,0,0,1-1.2,5l-.3-1.3,2.9,3.7h0a1.1,1.1,0,0,1,.3.8,9.2,9.2,0,0,1-.8,3.8,17.7,17.7,0,0,1-1.9,3.3,38.7,38.7,0,0,1-4.7,5.2,58.5,58.5,0,0,1-5.4,4.5,58.1,58.1,0,0,1-5.7,4l.3-.6a13.6,13.6,0,0,0,.3,2.9,16.1,16.1,0,0,0,.9,2.9,17.4,17.4,0,0,0,3.1,5h0a.3.3,0,0,1,0,.5Z" fill="#c81d6b"/><path d="M55.8,197.9H50.5l-1,3.5H45.9l5.3-18.1h3.9l5.2,18.1H56.7Zm-4.6-3.1H55l-1.8-7.1Z" fill="#58b849"/><path d="M65.2,201.4H61.8V187H65v1.6a3.9,3.9,0,0,1,3.4-1.7c2.6,0,4.4,1.6,4.4,5.2v9.3H69.3v-9c0-1.8-.7-2.5-2-2.5s-2.1.7-2.1,2.5Z" fill="#58b849"/><path d="M77.1,185.3a2.1,2.1,0,0,1-2.1-2.1,2,2,0,0,1,2.1-2,2,2,0,0,1,2,2A2,2,0,0,1,77.1,185.3Zm1.6,16.1H75.4V187h3.3Z" fill="#58b849"/><path d="M85.1,201.4H81.7V187h3.2v1.5a3.2,3.2,0,0,1,3-1.6,3.7,3.7,0,0,1,3.4,1.9,4,4,0,0,1,3.6-1.9c2.4,0,3.8,1.5,3.8,5v9.5H95.3v-9.6c0-1.5-.7-2-1.7-2a1.7,1.7,0,0,0-1.7,1.9v9.7H88.5v-9.6c0-1.4-.7-2-1.7-2s-1.7.5-1.7,1.9Z" fill="#58b849"/><path d="M100.9,196.3v-4.2c0-3.7,1.8-5.3,4.4-5.3a3.9,3.9,0,0,1,3.4,1.8V187h3.2v14.4h-3.2v-1.6a3.7,3.7,0,0,1-3.4,1.9C102.7,201.7,100.9,200,100.9,196.3Zm7.6-.2v-3.8c0-1.7-.9-2.5-2.1-2.5s-2,.8-2,2.6v3.7c0,1.8.8,2.6,2,2.6S108.5,197.8,108.5,196.1Z" fill="#58b849"/><path d="M118.2,201.4h-3.4V182.1h3.4Z" fill="#58b849"/><path d="M127.2,201.4V183.3h5.7c3.6,0,6.1,2.4,6.1,6.6v.5c0,2.8-1.2,4.7-3.2,5.5l3.1,5.5H135l-2.4-4.6h-1.9v4.6Zm3.5-14.7v6.7h1.8a2.8,2.8,0,0,0,3-3.1v-.5c0-2.5-1.4-3.1-3-3.1Z" fill="#58b849"/><path d="M152.1,196.8h0c0,2.7-2,4.8-5.5,4.8s-5.5-2.2-5.5-5.7v-3.5c0-3.5,2-5.7,5.5-5.7s5.5,2.1,5.5,5.6v2.8h-7.6v1.6a2.1,2.1,0,0,0,2.1,2.1c1.2,0,2.1-.6,2.1-1.8v-.3Zm-7.6-3.9h4.2v-.7c0-2-.8-2.6-2.1-2.6a2,2,0,0,0-2.1,2.2Z" fill="#58b849"/><path d="M164.7,191.8h-3.4c0-1.7-.8-2.1-2.1-2.1s-1.8.5-1.8,1.4c0,2.7,7.4,1.2,7.4,6.2,0,2.8-1.9,4.4-5.5,4.4s-5.6-1.9-5.6-5.1h3.4a2.1,2.1,0,0,0,2.2,2.3c1.4,0,2.1-.8,2.1-1.6,0-2.5-7.3-1.1-7.3-6.2,0-2.7,1.9-4.3,5.1-4.3S164.7,188.5,164.7,191.8Z" fill="#58b849"/><path d="M177.6,195.8c0,3.7-1.8,5.9-5.4,5.9s-5.5-2.2-5.5-5.7v-3.4c0-3.6,2-5.8,5.5-5.8s5.4,2.2,5.4,6h-3.4c0-2.1-.7-2.9-2-2.9s-2.1.6-2.1,2.5v3.4c0,1.9.7,2.9,2.1,2.9s2-.9,2-2.9Z" fill="#58b849"/><path d="M187.2,187h3.4v9.1c0,3.4-2.1,5.6-5.5,5.6s-5.4-2.2-5.4-5.6V187H183v9.6a2.1,2.1,0,0,0,4.2,0Z" fill="#58b849"/><path d="M203.7,196.8h0c0,2.7-2,4.8-5.5,4.8s-5.5-2.2-5.5-5.7v-3.5c0-3.5,2-5.7,5.5-5.7s5.5,2.1,5.5,5.6v2.8h-7.6v1.6a2.1,2.1,0,0,0,2.1,2.1c1.2,0,2.1-.6,2.1-1.8v-.3Zm-7.6-3.9h4.2v-.7c0-2-.8-2.6-2.1-2.6a2,2,0,0,0-2.1,2.2Z" fill="#58b849"/><path d="M34.6,140.9c0-1.4,1.8-5,7.6-6.5,7.5-2.2,16.6-.9,20,2.4s1.7,6.9-.7,9a27.6,27.6,0,0,1-10.4,5.5c3.9-.4,9.6.6,11.1,3.4s1.2,6.4-4.6,11.2-15.6,7.6-20.1,7.2-7.6-5.3-6.2-7.2,2.7-1.9,4.9-2.6a1.4,1.4,0,0,1,0-.9,69.2,69.2,0,0,1,4.4-10.6c1.5-3.6,5.8-12.8,7.6-16-6.3,1.1-11.5,4.6-11.5,6.7S34.7,142.5,34.6,140.9Zm6.3,21.5a12,12,0,0,1,5.6.3c1.2.5.8,1.2.5,1.3-3.3-.4-14,3.7-12.4,5.4s12.5-.8,18.8-6.1,5.6-8.2,2.4-9.5-8.2-1-10.9-.5v.2Zm5.3-11.8,3.5-1.1c6.1-2,9.4-6.6,9.1-9.8s-2.3-3.9-6.3-4.1a2.1,2.1,0,0,1,.9,1.7C52.2,137.7,49.6,143,46.2,150.6Z" fill="#f8c4da"/><path d="M69.8,160.6a7.4,7.4,0,0,0-.5,2.3c0,1.4.3,3,2,3.2,4.6.4,10.9-8.4,13.1-11.3.6-.6,2-.6,1.6.6-1.7,3.2-6.3,10-10.7,12.2s-8.7-.4-10-3.9c-2-5.3,4-14.2,8.3-16.1s8.6,2.1,7.9,4.9S73.9,158.9,69.8,160.6Zm1.1-2.6a31.8,31.8,0,0,0,7.1-6c1.4-1.9.3-2.7-1.6-1A27.5,27.5,0,0,0,70.9,158Z" fill="#f8c4da"/><path d="M86.3,152.4a7.9,7.9,0,0,1,1.3-2.6c1.3-1.8,3-3.3,4.9-3.3s3.3,3.2,2.5,3.6a4.6,4.6,0,0,0-4.5,4.6c0,3,2.1,6,1.7,8.9,3.2-2.4,6.8-7.4,7.9-8.8s1.8-.3,1.2.9a35.2,35.2,0,0,1-8.3,9.8c-3.7,2.9-10.3,3.8-14.9.4-1.6-1.2-2.6-3.6,1-4.3C81.2,159.2,84.2,155,86.3,152.4Zm-4.2,8.5a6.6,6.6,0,0,1,2.9,0c.3.1.4.7.1,1s-4.6,1.9-4.8,3,2.4,1.2,5,1.1a3.4,3.4,0,0,0,1.1-.7c1.9-2,.6-6.1,0-8.1a10.3,10.3,0,0,1-.4-1.4C84.8,157.4,83.4,159.3,82.1,160.9Z" fill="#f8c4da"/><path d="M107.5,148.3c2.1,0,3.9.1,4.1.4a.9.9,0,0,1-.7,1.6l-4.2-.2a17.4,17.4,0,0,0-1,1.9c-2.7,6.3-5.7,14.7-3.2,13.7s8.5-8.8,10-10.8,1.9-.5,1.2.8-7.2,10.6-9.9,11.9-6.4-.5-6.8-3.4.9-6.7,4.7-14.1H99.4c-1,0-.9-1.5.2-1.9h2.9c3.2-6.1,4.7-8.3,5-9.6s4,1.3,3.8,2.4S109.2,145.1,107.5,148.3Z" fill="#f8c4da"/><path d="M116.6,156.2a4.2,4.2,0,0,1,1.7,3.2,22.4,22.4,0,0,1,0,4.5c3.6-2.5,6.9-6.9,8.6-9.1.9-.6,1.4.2,1,1.1s-5.9,8.7-10.3,10.8a32.4,32.4,0,0,1-1.4,4c-2.2,5.1-5,9.2-8,9.8-1.4.3-5.5-1.3-5.1-4.9s3.8-9.8,6.4-15.1a8.4,8.4,0,0,1,1.7-3.4c2.7-5.7,8-15.7,8-17.2s4.2-.6,4.3,1.7S119.4,150.7,116.6,156.2Zm-5,10.3c-2.7,5.7-5.8,12.6-4.1,12.3s4.9-5.9,6.9-11.4A6.2,6.2,0,0,1,111.6,166.5Zm3.4-1.1c.7-2.7,1.2-5.9.7-7.4l-.9,2-2.3,4.7A3.4,3.4,0,0,0,115,165.4Z" fill="#f8c4da"/><path d="M135.9,149.7c1.7.2,3.9,1.7,2.2,3.9s-5.9,11.5-4.7,12,8.4-7.9,10.2-10.6c.8-1,1.7-.4,1.3.7-1.2,2.7-6.1,8.9-9.2,11.3s-6.6.2-7-2.8,3.4-10.1,4.5-12-.5-1.2-1.8-1.4c-1.1,2-3.7,5.4-5.5,8a.9.9,0,0,1-1.7-.6c1.3-1.9,3.9-5.8,5-7.8a1.4,1.4,0,0,1-1.2-.8c-.6-1.6,1.8-6.2,3-6.7s3.3.9,3.2,1.9a28.1,28.1,0,0,1-2.2,4.8C132,149.7,133.6,149.5,135.9,149.7Z" fill="#f8c4da"/><path d="M150,151.6c-.1,1.2-1.2,2.2-2.9,5.4-2.9,5.6-3.4,9-1.9,8.7s8.5-8,10.2-10.7c.9-1.1,1.9-.3,1.5.7-1.7,3.3-6.2,9.6-9.4,11.5s-5.4,0-6.5-1.4-1.3-4.1,1-8.9,3.8-6.1,3.9-7.5S150.2,149.9,150,151.6Zm.7-5.9c-1.5-.3-1.7-2.2-.2-3.2a4.4,4.4,0,0,1,4.8-.2c1,.9-.3,2.6-1.4,3A4.9,4.9,0,0,1,150.7,145.7Z" fill="#f8c4da"/><path d="M157.6,160.6a11.1,11.1,0,0,0-.4,2.3c-.1,1.4.2,3,1.9,3.2,4.6.4,10.9-8.4,13.2-11.3.5-.6,2-.6,1.5.6-1.6,3.2-6.3,10-10.7,12.2s-8.6-.4-10-3.9c-2-5.3,4-14.2,8.4-16.1s8.5,2.1,7.9,4.9S161.8,158.9,157.6,160.6Zm1.2-2.6a31,31,0,0,0,7-6c1.4-1.9.3-2.7-1.6-1A29.8,29.8,0,0,0,158.8,158Z" fill="#f8c4da"/><path d="M174.2,160.1s7.5-10.1,11.4-11.4c2.1-.6,5.5,1.3,4.6,3.8-1.4,4.1-7,13.5-4.6,13.3s7-6,10.1-10.8c.8-.7,1.5,0,1.2.9a38.1,38.1,0,0,1-9.1,11.2c-2.7,1.9-7.3-.3-7.2-3.3.3-5,6-12.2,5.1-12.3S172.6,165.4,172,167s-5.2-.6-4.7-2,6.7-13.6,7.2-16c1.2-.8,4,.7,3.8,1.9S174.2,160.1,174.2,160.1Z" fill="#f8c4da"/><path d="M211.3,151.9c-3,6.2-5.5,15-3.8,14.2s4.5-3.9,5.8-6.1c.5-.7,1.2-.1,1,.4s-2.4,6.8-4.9,8-6.6-1-7-4.2a9.7,9.7,0,0,1,.1-2.9c-1.8,2.7-4,5.5-5.9,6.4s-4.7-.9-5.4-3.1,4.4-14.2,9.2-16.3c2.4-1.1,5.1.1,6.8,1.2l.2-.4c3.8-7.4,5.9-11.6,6.8-12.7s4.5-1.4,5.1,0S217,139.9,211.3,151.9Zm-6.9,3.7a43.5,43.5,0,0,1,2.1-4.7,3.1,3.1,0,0,0-2.6-.5c-3.5,1.3-9.7,15-8.5,15.1S201.7,159.7,204.4,155.6Z" fill="#f8c4da"/></svg>